<svg width="1996" height="265" viewBox="0 0 1996 265" fill="none" xmlns="http://www.w3.org/2000/svg">
<path d="M69.3186 215.835C68.0953 215.835 67.0079 215.563 66.0565 215.019C65.1051 214.476 64.4934 213.728 64.2216 212.777L11.2133 70.2659C12.4366 69.7222 13.6598 69.4504 14.8831 69.4504C17.0578 69.4504 19.0286 70.13 20.7956 71.4892C22.6984 72.8484 24.0576 74.6153 24.8731 76.79L68.7069 198.913L66.0565 206.457L66.872 206.864L113.56 76.79C114.376 74.6153 115.735 72.8484 117.638 71.4892C119.541 70.13 121.579 69.4504 123.754 69.4504C125.113 69.4504 126.336 69.7222 127.424 70.2659L74.2116 212.777C73.3961 214.816 71.7651 215.835 69.3186 215.835ZM154.884 76.3823C154.884 75.0231 155.359 73.8678 156.311 72.9163C157.398 71.829 158.689 71.2853 160.184 71.2853H249.891C249.891 77.5376 246.493 80.6637 239.697 80.6637H165.281V137.342H225.425C225.425 143.73 221.96 146.924 215.028 146.924H165.281V204.622H243.978C250.638 204.622 253.968 207.748 253.968 214H160.184C158.689 214 157.398 213.524 156.311 212.573C155.359 211.486 154.884 210.194 154.884 208.699V76.3823ZM281.511 80.4598C281.511 76.9259 282.395 74.2076 284.162 72.3047C286.064 70.4018 288.715 69.4504 292.113 69.4504L382.635 203.398L383.246 202.787L379.984 197.486V69.4504C383.382 69.4504 385.965 70.4698 387.732 72.5086C389.499 74.4114 390.382 77.1298 390.382 80.6637V204.418C390.382 212.029 386.712 215.835 379.373 215.835L289.462 82.4986L288.443 83.1102L291.909 88.4111V204.622C291.909 208.291 291.025 211.078 289.258 212.981C287.492 214.883 284.909 215.835 281.511 215.835V80.4598ZM460.913 80.6637H410.759C410.759 74.4114 413.953 71.2853 420.341 71.2853H521.465C521.465 77.5376 518.27 80.6637 511.882 80.6637H471.31V204.622C471.31 208.155 470.427 210.942 468.66 212.981C466.893 214.883 464.311 215.835 460.913 215.835V80.6637ZM599.512 215.835C589.454 215.835 580.279 213.796 571.988 209.719C563.833 205.641 557.445 200.068 552.823 193.001C548.202 185.933 545.892 177.982 545.892 169.147V80.6637C545.892 77.1298 546.775 74.4114 548.542 72.5086C550.309 70.4698 552.891 69.4504 556.289 69.4504V169.147C556.289 176.215 558.124 182.603 561.794 188.311C565.464 193.884 570.561 198.233 577.085 201.36C583.745 204.486 591.221 206.049 599.512 206.049C607.803 206.049 615.21 204.486 621.734 201.36C628.394 198.233 633.559 193.884 637.229 188.311C640.899 182.603 642.734 176.215 642.734 169.147V80.6637C642.734 76.9939 643.617 74.2076 645.384 72.3047C647.151 70.4018 649.734 69.4504 653.132 69.4504V169.147C653.132 177.982 650.753 185.933 645.996 193.001C641.375 200.068 634.986 205.641 626.831 209.719C618.676 213.796 609.57 215.835 599.512 215.835ZM684.688 76.3823C684.688 74.8871 685.164 73.6639 686.115 72.7125C687.203 71.761 688.494 71.2853 689.989 71.2853H748.502C756.113 71.2853 762.977 72.9843 769.094 76.3823C775.21 79.7802 779.967 84.5374 783.365 90.6537C786.763 96.6341 788.462 103.43 788.462 111.042C788.462 119.061 786.559 126.061 782.753 132.041C778.948 138.021 773.307 142.711 765.832 146.109V146.72C772.22 149.031 777.181 152.972 780.715 158.545C784.384 163.982 786.219 170.438 786.219 177.914V204.622C786.219 208.291 785.336 211.078 783.569 212.981C781.802 214.883 779.22 215.835 775.822 215.835V179.137C775.822 170.166 773.579 163.302 769.094 158.545C764.608 153.652 758.22 151.206 749.929 151.206H695.086V204.622C695.086 208.291 694.202 211.078 692.435 212.981C690.668 214.883 688.086 215.835 684.688 215.835V76.3823ZM748.706 141.623C757.269 141.623 764.201 138.837 769.501 133.264C774.938 127.556 777.656 120.148 777.656 111.042C777.656 101.799 775.006 94.4595 769.705 89.0227C764.54 83.45 757.541 80.6637 748.706 80.6637H695.086V141.623H748.706ZM819.08 76.3823C819.08 75.0231 819.556 73.8678 820.508 72.9163C821.595 71.829 822.886 71.2853 824.381 71.2853H914.088C914.088 77.5376 910.69 80.6637 903.894 80.6637H829.478V137.342H889.622C889.622 143.73 886.156 146.924 879.224 146.924H829.478V204.622H908.175C914.835 204.622 918.165 207.748 918.165 214H824.381C822.886 214 821.595 213.524 820.508 212.573C819.556 211.486 819.08 210.194 819.08 208.699V76.3823ZM1046.39 215.835C1035.24 215.835 1025.66 214.068 1017.64 210.534C1009.62 207 1003.57 202.379 999.493 196.67C995.552 190.826 993.581 184.574 993.581 177.914C993.581 170.438 996.843 166.428 1003.37 165.885C1003.37 179.613 1006.9 189.739 1013.97 196.263C1021.04 202.787 1031.98 206.049 1046.79 206.049C1060.25 206.049 1070.85 203.466 1078.6 198.301C1086.35 193.136 1090.22 186.001 1090.22 176.894C1090.22 171.186 1088.86 166.496 1086.14 162.827C1083.42 159.021 1078.8 155.827 1072.28 153.244C1065.75 150.526 1056.65 148.079 1044.96 145.905C1027.7 142.643 1015.26 137.885 1007.65 131.633C1000.17 125.381 996.435 116.954 996.435 106.352C996.435 94.9352 1000.99 85.9645 1010.1 79.4404C1019.2 72.7804 1031.57 69.4504 1047.2 69.4504C1056.04 69.4504 1064.19 70.9455 1071.67 73.9357C1079.28 76.9259 1085.33 81.0715 1089.81 86.3723C1094.3 91.6731 1096.54 97.6535 1096.54 104.314C1096.54 111.653 1093.41 115.731 1087.16 116.546C1087.16 103.77 1083.56 94.3235 1076.36 88.2072C1069.15 81.9549 1058.96 78.8288 1045.77 78.8288C1033.81 78.8288 1024.43 81.2753 1017.64 86.1684C1010.84 90.9256 1007.44 97.3817 1007.44 105.537C1007.44 110.974 1008.6 115.595 1010.91 119.401C1013.36 123.07 1017.43 126.264 1023.14 128.983C1028.85 131.565 1036.8 133.876 1047 135.915C1060.59 138.633 1071.26 141.759 1079.01 145.293C1086.75 148.691 1092.33 152.905 1095.72 157.934C1099.12 162.963 1100.82 169.283 1100.82 176.894C1100.82 188.991 1095.93 198.505 1086.14 205.437C1076.49 212.369 1063.24 215.835 1046.39 215.835ZM1162.14 80.6637H1111.99C1111.99 74.4114 1115.18 71.2853 1121.57 71.2853H1222.69C1222.69 77.5376 1219.5 80.6637 1213.11 80.6637H1172.54V204.622C1172.54 208.155 1171.66 210.942 1169.89 212.981C1168.12 214.883 1165.54 215.835 1162.14 215.835V80.6637ZM1248.14 76.3823C1248.14 74.8871 1248.62 73.6639 1249.57 72.7125C1250.65 71.761 1251.95 71.2853 1253.44 71.2853H1311.95C1319.57 71.2853 1326.43 72.9843 1332.55 76.3823C1338.66 79.7802 1343.42 84.5374 1346.82 90.6537C1350.22 96.6341 1351.91 103.43 1351.91 111.042C1351.91 119.061 1350.01 126.061 1346.21 132.041C1342.4 138.021 1336.76 142.711 1329.28 146.109V146.72C1335.67 149.031 1340.63 152.972 1344.17 158.545C1347.84 163.982 1349.67 170.438 1349.67 177.914V204.622C1349.67 208.291 1348.79 211.078 1347.02 212.981C1345.25 214.883 1342.67 215.835 1339.27 215.835V179.137C1339.27 170.166 1337.03 163.302 1332.55 158.545C1328.06 153.652 1321.67 151.206 1313.38 151.206H1258.54V204.622C1258.54 208.291 1257.65 211.078 1255.89 212.981C1254.12 214.883 1251.54 215.835 1248.14 215.835V76.3823ZM1312.16 141.623C1320.72 141.623 1327.65 138.837 1332.95 133.264C1338.39 127.556 1341.11 120.148 1341.11 111.042C1341.11 101.799 1338.46 94.4595 1333.16 89.0227C1327.99 83.45 1320.99 80.6637 1312.16 80.6637H1258.54V141.623H1312.16ZM1383.96 215.835C1381.92 214.748 1380.29 213.252 1379.07 211.35C1377.98 209.311 1377.44 207.272 1377.44 205.233C1377.44 204.01 1377.64 202.923 1378.05 201.971L1429.02 72.5086C1429.83 70.4698 1431.46 69.4504 1433.91 69.4504C1435 69.4504 1436.02 69.7222 1436.97 70.2659C1437.92 70.8096 1438.53 71.5571 1438.8 72.5086L1489.57 201.767C1489.98 202.719 1490.18 203.874 1490.18 205.233C1490.18 207.408 1489.57 209.515 1488.35 211.553C1487.26 213.456 1485.7 214.883 1483.66 215.835L1466.12 168.739H1402.1L1383.96 215.835ZM1462.25 159.157L1431.87 81.2753L1431.26 81.6831L1433.3 87.3917L1405.57 159.157H1462.25ZM1539.44 80.6637H1489.28C1489.28 74.4114 1492.48 71.2853 1498.86 71.2853H1599.99C1599.99 77.5376 1596.79 80.6637 1590.41 80.6637H1549.83V204.622C1549.83 208.155 1548.95 210.942 1547.18 212.981C1545.42 214.883 1542.83 215.835 1539.44 215.835V80.6637ZM1625.43 76.3823C1625.43 75.0231 1625.91 73.8678 1626.86 72.9163C1627.95 71.829 1629.24 71.2853 1630.74 71.2853H1720.44C1720.44 77.5376 1717.04 80.6637 1710.25 80.6637H1635.83V137.342H1695.98C1695.98 143.73 1692.51 146.924 1685.58 146.924H1635.83V204.622H1714.53C1721.19 204.622 1724.52 207.748 1724.52 214H1630.74C1629.24 214 1627.95 213.524 1626.86 212.573C1625.91 211.486 1625.43 210.194 1625.43 208.699V76.3823ZM1796.73 215.835C1785.85 215.835 1776.14 213.932 1767.57 210.126C1759.15 206.185 1752.55 200.748 1747.8 193.816C1743.17 186.748 1740.86 178.729 1740.86 169.758V115.119C1740.86 106.284 1743.17 98.4011 1747.8 91.4692C1752.55 84.5374 1759.15 79.1686 1767.57 75.3629C1776 71.4212 1785.58 69.4504 1796.32 69.4504C1807.06 69.4504 1816.64 71.2173 1825.07 74.7512C1833.49 78.2851 1840.02 83.2462 1844.64 89.6343C1849.4 96.0225 1851.77 103.294 1851.77 111.449C1851.77 114.304 1850.82 116.682 1848.92 118.585C1847.15 120.352 1844.77 121.303 1841.78 121.439C1841.92 120.896 1841.99 118.993 1841.99 115.731C1841.99 108.527 1840.02 102.139 1836.08 96.5662C1832.27 90.9935 1826.9 86.6441 1819.97 83.518C1813.04 80.3919 1805.15 78.8288 1796.32 78.8288C1787.62 78.8288 1779.81 80.3919 1772.87 83.518C1766.08 86.5082 1760.78 90.7896 1756.97 96.3623C1753.17 101.799 1751.26 108.051 1751.26 115.119V169.758C1751.26 176.826 1753.17 183.146 1756.97 188.719C1760.78 194.292 1766.15 198.641 1773.08 201.767C1780.01 204.893 1787.89 206.457 1796.73 206.457C1805.7 206.457 1813.65 204.893 1820.58 201.767C1827.51 198.641 1832.88 194.224 1836.69 188.515C1840.63 182.807 1842.6 176.351 1842.6 169.147V152.225H1807.74C1804.75 152.225 1802.3 151.341 1800.4 149.575C1798.63 147.808 1797.75 145.497 1797.75 142.643H1847.49C1848.99 142.643 1850.21 143.118 1851.16 144.07C1852.25 145.021 1852.79 146.244 1852.79 147.74V169.147C1852.79 178.253 1850.41 186.341 1845.66 193.408C1840.9 200.476 1834.24 205.981 1825.68 209.922C1817.25 213.864 1807.6 215.835 1796.73 215.835ZM1922.97 161.399L1872 71.4892C1873.77 70.13 1875.6 69.4504 1877.5 69.4504C1879.27 69.4504 1880.83 69.8582 1882.19 70.6737C1883.69 71.3533 1884.78 72.3727 1885.46 73.7318L1927.66 152.021L1924.6 157.73L1925.62 158.137L1971.08 73.7318C1971.76 72.3727 1972.78 71.3533 1974.14 70.6737C1975.64 69.8582 1977.27 69.4504 1979.04 69.4504C1980.94 69.4504 1982.84 70.13 1984.74 71.4892L1933.37 161.399V204.622C1933.37 208.291 1932.48 211.078 1930.72 212.981C1928.95 214.883 1926.37 215.835 1922.97 215.835V161.399Z" fill="#163255"/>
<path d="M66.0565 215.019L65.8079 215.454V215.454L66.0565 215.019ZM64.2216 212.777L64.7034 212.639C64.6998 212.627 64.6958 212.614 64.6912 212.602L64.2216 212.777ZM11.2133 70.2659L11.0098 69.808C10.768 69.9155 10.6514 70.1926 10.7437 70.4406L11.2133 70.2659ZM20.7956 71.4892L20.4901 71.8863C20.4948 71.8899 20.4995 71.8935 20.5043 71.8969L20.7956 71.4892ZM24.8731 76.79L25.3448 76.6207L25.3423 76.6141L24.8731 76.79ZM68.7069 198.913L69.1797 199.079C69.2178 198.971 69.2174 198.852 69.1785 198.744L68.7069 198.913ZM66.0565 206.457L65.5838 206.29C65.5001 206.529 65.6066 206.792 65.8324 206.905L66.0565 206.457ZM66.872 206.864L66.6479 207.312C66.7761 207.376 66.9255 207.383 67.0585 207.329C67.1914 207.276 67.2952 207.168 67.3436 207.034L66.872 206.864ZM113.56 76.79L113.091 76.6141L113.089 76.6207L113.56 76.79ZM117.638 71.4892L117.346 71.0814V71.0814L117.638 71.4892ZM127.424 70.2659L127.893 70.4412C127.983 70.2012 127.877 69.9323 127.648 69.8177L127.424 70.2659ZM74.2116 212.777L74.677 212.963L74.6811 212.952L74.2116 212.777ZM69.3186 215.835V215.334C68.1721 215.334 67.1723 215.08 66.3051 214.584L66.0565 215.019L65.8079 215.454C66.8436 216.046 68.0185 216.336 69.3186 216.336V215.835ZM66.0565 215.019L66.3051 214.584C65.4539 214.098 64.9353 213.451 64.7034 212.639L64.2216 212.777L63.7398 212.914C64.0516 214.006 64.7562 214.853 65.8079 215.454L66.0565 215.019ZM64.2216 212.777L64.6912 212.602L11.6829 70.0912L11.2133 70.2659L10.7437 70.4406L63.752 212.951L64.2216 212.777ZM11.2133 70.2659L11.4168 70.7238C12.5821 70.2059 13.7363 69.9515 14.8831 69.9515V69.4504V68.9493C13.5833 68.9493 12.291 69.2386 11.0098 69.808L11.2133 70.2659ZM14.8831 69.4504V69.9515C16.9443 69.9515 18.8083 70.5927 20.4901 71.8863L20.7956 71.4892L21.1011 71.092C19.2489 69.6673 17.1713 68.9493 14.8831 68.9493V69.4504ZM20.7956 71.4892L20.5043 71.8969C22.3268 73.1987 23.6237 74.8852 24.404 76.9659L24.8731 76.79L25.3423 76.6141C24.4916 74.3455 23.0701 72.4981 21.0868 71.0814L20.7956 71.4892ZM24.8731 76.79L24.4015 76.9593L68.2353 199.082L68.7069 198.913L69.1785 198.744L25.3447 76.6207L24.8731 76.79ZM68.7069 198.913L68.2342 198.747L65.5838 206.29L66.0565 206.457L66.5293 206.623L69.1797 199.079L68.7069 198.913ZM66.0565 206.457L65.8324 206.905L66.6479 207.312L66.872 206.864L67.0961 206.416L66.2806 206.008L66.0565 206.457ZM66.872 206.864L67.3436 207.034L114.032 76.9593L113.56 76.79L113.089 76.6207L66.4004 206.695L66.872 206.864ZM113.56 76.79L114.029 76.9659C114.81 74.8852 116.106 73.1987 117.929 71.8969L117.638 71.4892L117.346 71.0814C115.363 72.4981 113.942 74.3455 113.091 76.6141L113.56 76.79ZM117.638 71.4892L117.929 71.8969C119.754 70.5936 121.692 69.9515 123.754 69.9515V69.4504V68.9493C121.467 68.9493 119.328 69.6664 117.346 71.0814L117.638 71.4892ZM123.754 69.4504V69.9515C125.045 69.9515 126.19 70.2091 127.2 70.7141L127.424 70.2659L127.648 69.8177C126.483 69.2354 125.182 68.9493 123.754 68.9493V69.4504ZM127.424 70.2659L126.954 70.0906L73.7422 212.601L74.2116 212.777L74.6811 212.952L127.893 70.4412L127.424 70.2659ZM74.2116 212.777L73.7464 212.591C73.3723 213.526 72.824 214.2 72.1112 214.645C71.3943 215.093 70.4732 215.334 69.3186 215.334V215.835V216.336C70.6105 216.336 71.7281 216.067 72.6423 215.495C73.5605 214.921 74.2354 214.066 74.6769 212.963L74.2116 212.777ZM156.311 72.9163L156.665 73.2706V73.2706L156.311 72.9163ZM249.891 71.2853H250.392C250.392 71.0086 250.168 70.7842 249.891 70.7842V71.2853ZM165.281 80.6637V80.1626C165.005 80.1626 164.78 80.387 164.78 80.6637H165.281ZM165.281 137.342H164.78C164.78 137.619 165.005 137.843 165.281 137.843V137.342ZM225.426 137.342H225.927C225.927 137.065 225.702 136.841 225.426 136.841V137.342ZM165.281 146.924V146.423C165.005 146.423 164.78 146.647 164.78 146.924H165.281ZM165.281 204.622H164.78C164.78 204.898 165.005 205.123 165.281 205.123V204.622ZM253.968 214V214.501C254.245 214.501 254.47 214.277 254.47 214H253.968ZM156.311 212.573L155.934 212.903C155.948 212.92 155.964 212.935 155.981 212.95L156.311 212.573ZM154.884 76.3823H155.385C155.385 75.1544 155.809 74.127 156.665 73.2706L156.311 72.9163L155.956 72.562C154.91 73.6085 154.383 74.8917 154.383 76.3823H154.884ZM156.311 72.9163L156.665 73.2706C157.661 72.2743 158.826 71.7864 160.184 71.7864V71.2853V70.7842C158.552 70.7842 157.135 71.3837 155.956 72.562L156.311 72.9163ZM160.184 71.2853V71.7864H249.891V71.2853V70.7842H160.184V71.2853ZM249.891 71.2853H249.39C249.39 74.323 248.566 76.5123 247.003 77.9503C245.432 79.3957 243.028 80.1626 239.697 80.1626V80.6637V81.1648C243.162 81.1648 245.855 80.3686 247.682 78.6879C249.516 76.9998 250.392 74.4999 250.392 71.2853H249.891ZM239.697 80.6637V80.1626H165.281V80.6637V81.1648H239.697V80.6637ZM165.281 80.6637H164.78V137.342H165.281H165.783V80.6637H165.281ZM165.281 137.342V137.843H225.426V137.342V136.841H165.281V137.342ZM225.426 137.342H224.924C224.924 140.448 224.084 142.688 222.486 144.16C220.881 145.639 218.426 146.423 215.028 146.423V146.924V147.425C218.561 147.425 221.305 146.612 223.166 144.897C225.034 143.175 225.927 140.624 225.927 137.342H225.426ZM215.028 146.924V146.423H165.281V146.924V147.425H215.028V146.924ZM165.281 146.924H164.78V204.622H165.281H165.783V146.924H165.281ZM165.281 204.622V205.123H243.978V204.622V204.121H165.281V204.622ZM243.978 204.622V205.123C247.239 205.123 249.591 205.888 251.128 207.332C252.659 208.769 253.467 210.959 253.467 214H253.968H254.47C254.47 210.788 253.613 208.29 251.814 206.601C250.021 204.918 247.378 204.121 243.978 204.121V204.622ZM253.968 214V213.499H160.184V214V214.501H253.968V214ZM160.184 214V213.499C158.806 213.499 157.633 213.064 156.641 212.196L156.311 212.573L155.981 212.95C157.163 213.984 158.573 214.501 160.184 214.501V214ZM156.311 212.573L156.688 212.243C155.819 211.25 155.385 210.078 155.385 208.699H154.884H154.383C154.383 210.311 154.899 211.721 155.934 212.903L156.311 212.573ZM154.884 208.699H155.385V76.3823H154.884H154.383V208.699H154.884ZM284.161 72.3047L283.807 71.9504C283.803 71.9548 283.799 71.9592 283.794 71.9637L284.161 72.3047ZM292.113 69.4504L292.528 69.1698C292.435 69.032 292.279 68.9493 292.113 68.9493V69.4504ZM382.635 203.398L382.219 203.679C382.303 203.803 382.438 203.883 382.587 203.897C382.736 203.911 382.883 203.858 382.989 203.753L382.635 203.398ZM383.246 202.787L383.601 203.141C383.765 202.977 383.795 202.722 383.673 202.524L383.246 202.787ZM379.984 197.486H379.483C379.483 197.579 379.509 197.67 379.557 197.748L379.984 197.486ZM379.984 69.4504V68.9493C379.707 68.9493 379.483 69.1737 379.483 69.4504H379.984ZM387.732 72.5086L387.353 72.8367C387.357 72.8411 387.361 72.8453 387.364 72.8495L387.732 72.5086ZM379.373 215.835L378.957 216.115C379.05 216.253 379.206 216.336 379.373 216.336V215.835ZM289.462 82.4986L289.878 82.2185C289.729 81.9975 289.433 81.9319 289.205 82.0689L289.462 82.4986ZM288.443 83.1102L288.185 82.6806C288.068 82.7507 287.985 82.8653 287.955 82.9981C287.924 83.1309 287.949 83.2704 288.024 83.3844L288.443 83.1102ZM291.909 88.4111H292.41C292.41 88.3137 292.382 88.2184 292.328 88.1368L291.909 88.4111ZM289.258 212.981L288.891 212.64L289.258 212.981ZM281.511 215.835H281.01C281.01 216.112 281.234 216.336 281.511 216.336V215.835ZM281.511 80.4598H282.012C282.012 77.0061 282.875 74.4267 284.529 72.6456L284.161 72.3047L283.794 71.9637C281.914 73.9884 281.01 76.8457 281.01 80.4598H281.511ZM284.161 72.3047L284.516 72.659C286.302 70.8732 288.811 69.9515 292.113 69.9515V69.4504V68.9493C288.619 68.9493 285.827 69.9304 283.807 71.9504L284.161 72.3047ZM292.113 69.4504L291.698 69.731L382.219 203.679L382.635 203.398L383.05 203.118L292.528 69.1698L292.113 69.4504ZM382.635 203.398L382.989 203.753L383.601 203.141L383.246 202.787L382.892 202.432L382.28 203.044L382.635 203.398ZM383.246 202.787L383.673 202.524L380.411 197.223L379.984 197.486L379.557 197.748L382.82 203.049L383.246 202.787ZM379.984 197.486H380.485V69.4504H379.984H379.483V197.486H379.984ZM379.984 69.4504V69.9515C383.278 69.9515 385.705 70.9352 387.353 72.8367L387.732 72.5086L388.11 72.1804C386.224 70.0044 383.487 68.9493 379.984 68.9493V69.4504ZM387.732 72.5086L387.364 72.8495C389.018 74.6306 389.881 77.21 389.881 80.6637H390.382H390.883C390.883 77.0496 389.979 74.1923 388.099 72.1676L387.732 72.5086ZM390.382 80.6637H389.881V204.418H390.382H390.883V80.6637H390.382ZM390.382 204.418H389.881C389.881 208.151 388.981 210.858 387.269 212.633C385.56 214.405 382.96 215.334 379.373 215.334V215.835V216.336C383.124 216.336 386.029 215.362 387.99 213.328C389.948 211.298 390.883 208.296 390.883 204.418H390.382ZM379.373 215.835L379.788 215.555L289.878 82.2185L289.462 82.4986L289.047 82.7787L378.957 216.115L379.373 215.835ZM289.462 82.4986L289.205 82.0689L288.185 82.6806L288.443 83.1102L288.701 83.5399L289.72 82.9283L289.462 82.4986ZM288.443 83.1102L288.024 83.3844L291.49 88.6853L291.909 88.4111L292.328 88.1368L288.862 82.836L288.443 83.1102ZM291.909 88.4111H291.408V204.622H291.909H292.41V88.4111H291.909ZM291.909 204.622H291.408C291.408 208.217 290.542 210.862 288.891 212.64L289.258 212.981L289.626 213.322C291.509 211.294 292.41 208.366 292.41 204.622H291.909ZM289.258 212.981L288.891 212.64C287.246 214.411 284.815 215.334 281.511 215.334V215.835V216.336C285.003 216.336 287.737 215.356 289.626 213.322L289.258 212.981ZM281.511 215.835H282.012V80.4598H281.511H281.01V215.835H281.511ZM460.913 80.6637H461.414C461.414 80.387 461.189 80.1626 460.913 80.1626V80.6637ZM410.759 80.6637H410.258C410.258 80.9404 410.482 81.1648 410.759 81.1648V80.6637ZM521.464 71.2853H521.966C521.966 71.0086 521.741 70.7842 521.464 70.7842V71.2853ZM471.31 80.6637V80.1626C471.034 80.1626 470.809 80.387 470.809 80.6637H471.31ZM468.66 212.981L469.027 213.322C469.031 213.317 469.035 213.313 469.039 213.309L468.66 212.981ZM460.913 215.835H460.412C460.412 216.112 460.636 216.336 460.913 216.336V215.835ZM460.913 80.6637V80.1626H410.759V80.6637V81.1648H460.913V80.6637ZM410.759 80.6637H411.26C411.26 77.6176 412.037 75.4244 413.505 73.988C414.974 72.5497 417.221 71.7864 420.341 71.7864V71.2853V70.7842C417.072 70.7842 414.528 71.584 412.804 73.2718C411.077 74.9615 410.258 77.4576 410.258 80.6637H410.759ZM420.341 71.2853V71.7864H521.464V71.2853V70.7842H420.341V71.2853ZM521.464 71.2853H520.963C520.963 74.3314 520.186 76.5246 518.718 77.961C517.249 79.3993 515.002 80.1626 511.882 80.1626V80.6637V81.1648C515.151 81.1648 517.695 80.365 519.419 78.6772C521.146 76.9874 521.966 74.4914 521.966 71.2853H521.464ZM511.882 80.6637V80.1626H471.31V80.6637V81.1648H511.882V80.6637ZM471.31 80.6637H470.809V204.622H471.31H471.812V80.6637H471.31ZM471.31 204.622H470.809C470.809 208.073 469.948 210.73 468.281 212.652L468.66 212.981L469.039 213.309C470.906 211.154 471.812 208.238 471.812 204.622H471.31ZM468.66 212.981L468.293 212.64C466.648 214.411 464.217 215.334 460.913 215.334V215.835V216.336C464.405 216.336 467.139 215.356 469.027 213.322L468.66 212.981ZM460.913 215.835H461.414V80.6637H460.913H460.412V215.835H460.913ZM571.988 209.719L571.764 210.167L571.767 210.168L571.988 209.719ZM552.823 193.001L553.243 192.726V192.726L552.823 193.001ZM548.542 72.5086L548.909 72.8495C548.913 72.8453 548.917 72.8411 548.921 72.8367L548.542 72.5086ZM556.289 69.4504H556.79C556.79 69.1737 556.566 68.9493 556.289 68.9493V69.4504ZM561.794 188.311L561.373 188.582L561.376 188.587L561.794 188.311ZM577.085 201.36L576.868 201.811L576.872 201.813L577.085 201.36ZM621.734 201.36L621.521 200.906L621.518 200.908L621.734 201.36ZM637.229 188.311L637.648 188.587L637.651 188.582L637.229 188.311ZM653.132 69.4504H653.633C653.633 69.1737 653.408 68.9493 653.132 68.9493V69.4504ZM645.996 193.001L645.58 192.721L645.576 192.726L645.996 193.001ZM626.831 209.719L627.055 210.167V210.167L626.831 209.719ZM599.512 215.835V215.334C589.523 215.334 580.425 213.31 572.209 209.269L571.988 209.719L571.767 210.168C580.133 214.283 589.384 216.336 599.512 216.336V215.835ZM571.988 209.719L572.212 209.27C564.13 205.229 557.812 199.714 553.243 192.726L552.823 193.001L552.404 193.275C557.078 200.423 563.536 206.053 571.764 210.167L571.988 209.719ZM552.823 193.001L553.243 192.726C548.677 185.744 546.393 177.889 546.393 169.147H545.892H545.391C545.391 178.074 547.727 186.122 552.404 193.275L552.823 193.001ZM545.892 169.147H546.393V80.6637H545.892H545.391V169.147H545.892ZM545.892 80.6637H546.393C546.393 77.21 547.255 74.6306 548.909 72.8495L548.542 72.5086L548.175 72.1676C546.295 74.1923 545.391 77.0496 545.391 80.6637H545.892ZM548.542 72.5086L548.921 72.8367C550.569 70.9352 552.996 69.9515 556.289 69.9515V69.4504V68.9493C552.787 68.9493 550.049 70.0044 548.163 72.1804L548.542 72.5086ZM556.289 69.4504H555.788V169.147H556.289H556.79V69.4504H556.289ZM556.289 169.147H555.788C555.788 176.306 557.649 182.789 561.373 188.582L561.794 188.311L562.216 188.04C558.6 182.416 556.79 176.123 556.79 169.147H556.289ZM561.794 188.311L561.376 188.587C565.1 194.242 570.269 198.649 576.868 201.811L577.085 201.36L577.302 200.908C570.852 197.817 565.828 193.526 562.213 188.036L561.794 188.311ZM577.085 201.36L576.872 201.813C583.607 204.974 591.156 206.55 599.512 206.55V206.049V205.548C591.285 205.548 583.883 203.997 577.298 200.906L577.085 201.36ZM599.512 206.049V206.55C607.867 206.55 615.35 204.974 621.951 201.811L621.734 201.36L621.518 200.908C615.07 203.997 607.739 205.548 599.512 205.548V206.049ZM621.734 201.36L621.947 201.813C628.682 198.652 633.922 194.245 637.648 188.587L637.229 188.311L636.811 188.036C633.197 193.524 628.107 197.815 621.521 200.906L621.734 201.36ZM637.229 188.311L637.651 188.582C641.375 182.789 643.235 176.306 643.235 169.147H642.734H642.233C642.233 176.123 640.423 182.416 636.808 188.04L637.229 188.311ZM642.734 169.147H643.235V80.6637H642.734H642.233V169.147H642.734ZM642.734 80.6637H643.235C643.235 77.0681 644.1 74.4236 645.751 72.6456L645.384 72.3047L645.017 71.9637C643.134 73.9915 642.233 76.9197 642.233 80.6637H642.734ZM645.384 72.3047L645.751 72.6456C647.397 70.8739 649.828 69.9515 653.132 69.9515V69.4504V68.9493C649.639 68.9493 646.906 69.9298 645.017 71.9637L645.384 72.3047ZM653.132 69.4504H652.63V169.147H653.132H653.633V69.4504H653.132ZM653.132 169.147H652.63C652.63 177.886 650.279 185.739 645.58 192.721L645.996 193.001L646.411 193.28C651.226 186.127 653.633 178.077 653.633 169.147H653.132ZM645.996 193.001L645.576 192.726C641.008 199.714 634.689 205.229 626.607 209.27L626.831 209.719L627.055 210.167C635.283 206.053 641.742 200.423 646.415 193.275L645.996 193.001ZM626.831 209.719L626.607 209.27C618.529 213.31 609.5 215.334 599.512 215.334V215.835V216.336C609.639 216.336 618.824 214.283 627.055 210.167L626.831 209.719ZM686.115 72.7124L685.785 72.3354C685.777 72.3427 685.769 72.3503 685.761 72.3581L686.115 72.7124ZM769.094 76.3823L768.85 76.8203V76.8203L769.094 76.3823ZM783.365 90.6537L782.927 90.8971L782.929 90.9013L783.365 90.6537ZM765.832 146.109L765.624 145.652C765.445 145.734 765.331 145.912 765.331 146.109H765.832ZM765.832 146.72H765.331C765.331 146.931 765.463 147.12 765.661 147.191L765.832 146.72ZM780.715 158.545L780.292 158.813C780.294 158.818 780.297 158.822 780.299 158.825L780.715 158.545ZM783.569 212.981L783.202 212.64V212.64L783.569 212.981ZM775.822 215.835H775.32C775.32 216.112 775.545 216.336 775.822 216.336V215.835ZM769.094 158.545L768.724 158.884L768.729 158.889L769.094 158.545ZM695.086 151.206V150.704C694.809 150.704 694.585 150.929 694.585 151.206H695.086ZM692.435 212.981L692.068 212.64L692.435 212.981ZM684.688 215.835H684.187C684.187 216.112 684.411 216.336 684.688 216.336V215.835ZM769.501 133.264L769.139 132.919L769.138 132.919L769.501 133.264ZM769.705 89.0227L769.338 89.3634L769.346 89.3725L769.705 89.0227ZM695.086 80.6637V80.1626C694.809 80.1626 694.585 80.387 694.585 80.6637H695.086ZM695.086 141.623H694.585C694.585 141.9 694.809 142.124 695.086 142.124V141.623ZM684.688 76.3823H685.189C685.189 75.0039 685.623 73.9134 686.47 73.0668L686.115 72.7124L685.761 72.3581C684.705 73.4144 684.187 74.7704 684.187 76.3823H684.688ZM686.115 72.7124L686.445 73.0896C687.438 72.221 688.611 71.7864 689.989 71.7864V71.2853V70.7842C688.377 70.7842 686.967 71.301 685.785 72.3354L686.115 72.7124ZM689.989 71.2853V71.7864H748.502V71.2853V70.7842H689.989V71.2853ZM748.502 71.2853V71.7864C756.036 71.7864 762.815 73.4672 768.85 76.8203L769.094 76.3823L769.337 75.9442C763.14 72.5013 756.191 70.7842 748.502 70.7842V71.2853ZM769.094 76.3823L768.85 76.8203C774.885 80.1728 779.575 84.8625 782.927 90.8971L783.365 90.6537L783.803 90.4104C780.36 84.2122 775.535 79.3876 769.337 75.9442L769.094 76.3823ZM783.365 90.6537L782.929 90.9013C786.28 96.7984 787.961 103.507 787.961 111.042H788.462H788.963C788.963 103.353 787.246 96.4699 783.801 90.4062L783.365 90.6537ZM788.462 111.042H787.961C787.961 118.978 786.079 125.882 782.331 131.772L782.753 132.041L783.176 132.31C787.04 126.239 788.963 119.143 788.963 111.042H788.462ZM782.753 132.041L782.331 131.772C778.585 137.658 773.026 142.288 765.624 145.652L765.832 146.109L766.039 146.565C773.589 143.133 779.31 138.385 783.176 132.31L782.753 132.041ZM765.832 146.109H765.331V146.72H765.832H766.333V146.109H765.832ZM765.832 146.72L765.661 147.191C771.948 149.465 776.819 153.337 780.292 158.813L780.715 158.545L781.138 158.277C777.543 152.607 772.491 148.596 766.002 146.249L765.832 146.72ZM780.715 158.545L780.299 158.825C783.906 164.168 785.718 170.524 785.718 177.914H786.219H786.72C786.72 170.353 784.863 163.796 781.13 158.265L780.715 158.545ZM786.219 177.914H785.718V204.622H786.219H786.72V177.914H786.219ZM786.219 204.622H785.718C785.718 208.217 784.853 210.862 783.202 212.64L783.569 212.981L783.936 213.322C785.819 211.294 786.72 208.366 786.72 204.622H786.219ZM783.569 212.981L783.202 212.64C781.557 214.411 779.125 215.334 775.822 215.334V215.835V216.336C779.314 216.336 782.047 215.356 783.936 213.322L783.569 212.981ZM775.822 215.835H776.323V179.137H775.822H775.32V215.835H775.822ZM775.822 179.137H776.323C776.323 170.087 774.059 163.082 769.458 158.201L769.094 158.545L768.729 158.889C773.098 163.523 775.32 170.246 775.32 179.137H775.822ZM769.094 158.545L769.463 158.207C764.86 153.185 758.323 150.704 749.929 150.704V151.206V151.707C758.117 151.707 764.357 154.119 768.724 158.884L769.094 158.545ZM749.929 151.206V150.704H695.086V151.206V151.707H749.929V151.206ZM695.086 151.206H694.585V204.622H695.086H695.587V151.206H695.086ZM695.086 204.622H694.585C694.585 208.217 693.719 210.862 692.068 212.64L692.435 212.981L692.803 213.322C694.686 211.294 695.587 208.366 695.587 204.622H695.086ZM692.435 212.981L692.068 212.64C690.423 214.411 687.992 215.334 684.688 215.334V215.835V216.336C688.18 216.336 690.914 215.356 692.803 213.322L692.435 212.981ZM684.688 215.835H685.189V76.3823H684.688H684.187V215.835H684.688ZM748.706 141.623V142.124C757.389 142.124 764.458 139.293 769.864 133.61L769.501 133.264L769.138 132.919C763.943 138.38 757.149 141.122 748.706 141.122V141.623ZM769.501 133.264L769.864 133.61C775.403 127.794 778.158 120.255 778.158 111.042H777.656H777.155C777.155 120.041 774.473 127.318 769.139 132.919L769.501 133.264ZM777.656 111.042H778.158C778.158 101.699 775.475 94.2228 770.064 88.6729L769.705 89.0227L769.346 89.3725C774.537 94.6961 777.155 101.9 777.155 111.042H777.656ZM769.705 89.0227L770.073 88.6821C764.797 82.9902 757.655 80.1626 748.706 80.1626V80.6637V81.1648C757.426 81.1648 764.283 83.9099 769.338 89.3633L769.705 89.0227ZM748.706 80.6637V80.1626H695.086V80.6637V81.1648H748.706V80.6637ZM695.086 80.6637H694.585V141.623H695.086H695.587V80.6637H695.086ZM695.086 141.623V142.124H748.706V141.623V141.122H695.086V141.623ZM820.508 72.9163L820.862 73.2706V73.2706L820.508 72.9163ZM914.088 71.2853H914.589C914.589 71.0086 914.364 70.7842 914.088 70.7842V71.2853ZM829.478 80.6637V80.1626C829.201 80.1626 828.977 80.387 828.977 80.6637H829.478ZM829.478 137.342H828.977C828.977 137.619 829.201 137.843 829.478 137.843V137.342ZM889.622 137.342H890.123C890.123 137.065 889.899 136.841 889.622 136.841V137.342ZM829.478 146.924V146.423C829.201 146.423 828.977 146.647 828.977 146.924H829.478ZM829.478 204.622H828.977C828.977 204.898 829.201 205.123 829.478 205.123V204.622ZM918.165 214V214.501C918.442 214.501 918.666 214.277 918.666 214H918.165ZM820.508 212.573L820.13 212.903C820.145 212.92 820.161 212.935 820.178 212.95L820.508 212.573ZM819.08 76.3823H819.581C819.581 75.1544 820.005 74.127 820.862 73.2706L820.508 72.9163L820.153 72.562C819.107 73.6085 818.579 74.8917 818.579 76.3823H819.08ZM820.508 72.9163L820.862 73.2706C821.858 72.2743 823.023 71.7864 824.381 71.7864V71.2853V70.7842C822.749 70.7842 821.332 71.3837 820.153 72.562L820.508 72.9163ZM824.381 71.2853V71.7864H914.088V71.2853V70.7842H824.381V71.2853ZM914.088 71.2853H913.587C913.587 74.323 912.763 76.5123 911.2 77.9503C909.629 79.3957 907.224 80.1626 903.894 80.1626V80.6637V81.1648C907.359 81.1648 910.051 80.3686 911.878 78.6879C913.713 76.9998 914.589 74.4999 914.589 71.2853H914.088ZM903.894 80.6637V80.1626H829.478V80.6637V81.1648H903.894V80.6637ZM829.478 80.6637H828.977V137.342H829.478H829.979V80.6637H829.478ZM829.478 137.342V137.843H889.622V137.342V136.841H829.478V137.342ZM889.622 137.342H889.121C889.121 140.448 888.281 142.688 886.683 144.16C885.078 145.639 882.623 146.423 879.224 146.423V146.924V147.425C882.758 147.425 885.501 146.612 887.362 144.897C889.231 143.175 890.123 140.624 890.123 137.342H889.622ZM879.224 146.924V146.423H829.478V146.924V147.425H879.224V146.924ZM829.478 146.924H828.977V204.622H829.478H829.979V146.924H829.478ZM829.478 204.622V205.123H908.175V204.622V204.121H829.478V204.622ZM908.175 204.622V205.123C911.436 205.123 913.788 205.888 915.325 207.332C916.856 208.769 917.664 210.959 917.664 214H918.165H918.666C918.666 210.788 917.809 208.29 916.011 206.601C914.218 204.918 911.575 204.121 908.175 204.121V204.622ZM918.165 214V213.499H824.381V214V214.501H918.165V214ZM824.381 214V213.499C823.003 213.499 821.83 213.064 820.838 212.196L820.508 212.573L820.178 212.95C821.36 213.984 822.769 214.501 824.381 214.501V214ZM820.508 212.573L820.885 212.243C820.016 211.25 819.581 210.078 819.581 208.699H819.08H818.579C818.579 210.311 819.096 211.721 820.13 212.903L820.508 212.573ZM819.08 208.699H819.581V76.3823H819.08H818.579V208.699H819.08ZM1017.64 210.534L1017.84 210.076V210.076L1017.64 210.534ZM999.493 196.67L999.078 196.951L999.086 196.962L999.493 196.67ZM1003.37 165.885H1003.87C1003.87 165.745 1003.81 165.611 1003.71 165.516C1003.6 165.421 1003.47 165.374 1003.33 165.385L1003.37 165.885ZM1013.97 196.263L1014.31 195.894V195.894L1013.97 196.263ZM1078.6 198.301L1078.88 198.718V198.718L1078.6 198.301ZM1086.14 162.827L1085.73 163.118L1085.74 163.125L1086.14 162.827ZM1072.28 153.244L1072.09 153.707L1072.09 153.71L1072.28 153.244ZM1044.96 145.905L1044.87 146.397L1044.87 146.397L1044.96 145.905ZM1007.65 131.633L1007.33 132.018L1007.33 132.02L1007.65 131.633ZM1010.1 79.4404L1010.39 79.8478L1010.39 79.8449L1010.1 79.4404ZM1071.67 73.9357L1071.48 74.401L1071.48 74.4021L1071.67 73.9357ZM1089.81 86.3723L1090.19 86.0486V86.0486L1089.81 86.3723ZM1087.16 116.546H1086.66C1086.66 116.69 1086.72 116.828 1086.83 116.923C1086.94 117.018 1087.08 117.062 1087.23 117.043L1087.16 116.546ZM1076.36 88.2072L1076.03 88.5856L1076.03 88.5891L1076.36 88.2072ZM1017.64 86.1684L1017.93 86.5789L1017.93 86.575L1017.64 86.1684ZM1010.91 119.401L1010.48 119.661C1010.49 119.667 1010.49 119.673 1010.49 119.678L1010.91 119.401ZM1023.14 128.983L1022.93 129.435L1022.94 129.439L1023.14 128.983ZM1047 135.915L1046.9 136.406V136.406L1047 135.915ZM1079.01 145.293L1078.8 145.749L1078.8 145.752L1079.01 145.293ZM1086.14 205.437L1085.85 205.028L1085.85 205.03L1086.14 205.437ZM1046.39 215.835V215.334C1035.29 215.334 1025.78 213.575 1017.84 210.076L1017.64 210.534L1017.44 210.993C1025.53 214.561 1035.19 216.336 1046.39 216.336V215.835ZM1017.64 210.534L1017.84 210.076C1009.88 206.569 1003.91 201.998 999.901 196.379L999.493 196.67L999.086 196.962C1003.23 202.76 1009.36 207.431 1017.44 210.993L1017.64 210.534ZM999.493 196.67L999.909 196.39C996.02 190.623 994.082 184.468 994.082 177.914H993.581H993.08C993.08 184.679 995.084 191.028 999.078 196.951L999.493 196.67ZM993.581 177.914H994.082C994.082 174.241 994.884 171.499 996.416 169.616C997.94 167.743 1000.24 166.648 1003.41 166.384L1003.37 165.885L1003.33 165.385C999.966 165.665 997.377 166.847 995.639 168.984C993.909 171.11 993.08 174.111 993.08 177.914H993.581ZM1003.37 165.885H1002.87C1002.87 179.691 1006.42 189.977 1013.63 196.631L1013.97 196.263L1014.31 195.894C1007.38 189.5 1003.87 179.534 1003.87 165.885H1003.37ZM1013.97 196.263L1013.63 196.631C1020.83 203.276 1031.92 206.55 1046.79 206.55V206.049V205.548C1032.04 205.548 1021.24 202.297 1014.31 195.894L1013.97 196.263ZM1046.79 206.049V206.55C1060.31 206.55 1071.02 203.957 1078.88 198.718L1078.6 198.301L1078.32 197.884C1070.68 202.975 1060.19 205.548 1046.79 205.548V206.049ZM1078.6 198.301L1078.88 198.718C1086.76 193.463 1090.72 186.173 1090.72 176.894H1090.22H1089.72C1089.72 185.829 1085.93 192.81 1078.32 197.884L1078.6 198.301ZM1090.22 176.894H1090.72C1090.72 171.105 1089.34 166.304 1086.54 162.528L1086.14 162.827L1085.74 163.125C1088.38 166.689 1089.72 171.266 1089.72 176.894H1090.22ZM1086.14 162.827L1086.55 162.535C1083.75 158.621 1079.03 155.38 1072.46 152.778L1072.28 153.244L1072.09 153.71C1078.57 156.274 1083.09 159.421 1085.73 163.118L1086.14 162.827ZM1072.28 153.244L1072.47 152.782C1065.9 150.044 1056.75 147.59 1045.05 145.412L1044.96 145.905L1044.87 146.397C1056.54 148.569 1065.61 151.008 1072.09 153.707L1072.28 153.244ZM1044.96 145.905L1045.05 145.412C1027.82 142.155 1015.48 137.418 1007.97 131.246L1007.65 131.633L1007.33 132.02C1015.04 138.353 1027.58 143.13 1044.87 146.397L1044.96 145.905ZM1007.65 131.633L1007.97 131.249C1000.62 125.101 996.936 116.82 996.936 106.352H996.435H995.934C995.934 117.088 999.727 125.661 1007.33 132.018L1007.65 131.633ZM996.435 106.352H996.936C996.936 95.0931 1001.41 86.2756 1010.39 79.8478L1010.1 79.4404L1009.8 79.0331C1000.56 85.6534 995.934 94.7773 995.934 106.352H996.435ZM1010.1 79.4404L1010.39 79.8449C1019.38 73.2677 1031.64 69.9515 1047.2 69.9515V69.4504V68.9493C1031.5 68.9493 1019.02 72.2931 1009.8 79.036L1010.1 79.4404ZM1047.2 69.4504V69.9515C1055.98 69.9515 1064.07 71.4366 1071.48 74.401L1071.67 73.9357L1071.85 73.4705C1064.31 70.4544 1056.09 68.9493 1047.2 68.9493V69.4504ZM1071.67 73.9357L1071.48 74.4021C1079.03 77.3674 1085.01 81.4688 1089.43 86.6959L1089.81 86.3723L1090.19 86.0486C1085.65 80.6741 1079.52 76.4845 1071.85 73.4693L1071.67 73.9357ZM1089.81 86.3723L1089.43 86.6959C1093.84 91.9105 1096.04 97.7774 1096.04 104.314H1096.54H1097.04C1097.04 97.5296 1094.75 91.4357 1090.19 86.0486L1089.81 86.3723ZM1096.54 104.314H1096.04C1096.04 107.919 1095.27 110.651 1093.8 112.572C1092.33 114.482 1090.12 115.655 1087.1 116.049L1087.16 116.546L1087.23 117.043C1090.45 116.622 1092.93 115.349 1094.59 113.181C1096.25 111.025 1097.04 108.048 1097.04 104.314H1096.54ZM1087.16 116.546H1087.66C1087.66 103.677 1084.03 94.0672 1076.68 87.8252L1076.36 88.2072L1076.03 88.5891C1083.09 94.5798 1086.66 103.862 1086.66 116.546H1087.16ZM1076.36 88.2072L1076.68 87.8288C1069.36 81.4717 1059.03 78.3277 1045.77 78.3277V78.8288V79.3299C1058.88 79.3299 1068.94 82.4382 1076.03 88.5856L1076.36 88.2072ZM1045.77 78.8288V78.3277C1033.75 78.3277 1024.26 80.7861 1017.35 85.7618L1017.64 86.1684L1017.93 86.575C1024.61 81.7646 1033.87 79.3299 1045.77 79.3299V78.8288ZM1017.64 86.1684L1017.35 85.7579C1010.42 90.6069 1006.94 97.2149 1006.94 105.537H1007.44H1007.95C1007.95 97.5485 1011.26 91.2442 1017.93 86.5789L1017.64 86.1684ZM1007.44 105.537H1006.94C1006.94 111.045 1008.11 115.761 1010.48 119.661L1010.91 119.401L1011.34 119.141C1009.09 115.429 1007.95 110.902 1007.95 105.537H1007.44ZM1010.91 119.401L1010.49 119.678C1013.01 123.449 1017.17 126.694 1022.93 129.435L1023.14 128.983L1023.36 128.53C1017.7 125.835 1013.71 122.691 1011.33 119.123L1010.91 119.401ZM1023.14 128.983L1022.94 129.439C1028.7 132.044 1036.69 134.364 1046.9 136.406L1047 135.915L1047.1 135.423C1036.92 133.388 1029.01 131.086 1023.35 128.526L1023.14 128.983ZM1047 135.915L1046.9 136.406C1060.47 139.121 1071.1 142.238 1078.8 145.749L1079.01 145.293L1079.21 144.837C1071.42 141.281 1060.7 138.145 1047.1 135.423L1047 135.915ZM1079.01 145.293L1078.8 145.752C1086.5 149.126 1091.98 153.289 1095.31 158.214L1095.72 157.934L1096.14 157.653C1092.67 152.52 1087.01 148.256 1079.21 144.834L1079.01 145.293ZM1095.72 157.934L1095.31 158.214C1098.64 163.141 1100.32 169.357 1100.32 176.894H1100.82H1101.32C1101.32 169.208 1099.61 162.784 1096.14 157.653L1095.72 157.934ZM1100.82 176.894H1100.32C1100.32 188.83 1095.5 198.191 1085.85 205.028L1086.14 205.437L1086.43 205.846C1096.35 198.819 1101.32 189.152 1101.32 176.894H1100.82ZM1086.14 205.437L1085.85 205.03C1076.31 211.88 1063.18 215.334 1046.39 215.334V215.835V216.336C1063.3 216.336 1076.67 212.858 1086.43 205.844L1086.14 205.437ZM1162.14 80.6637H1162.64C1162.64 80.387 1162.42 80.1626 1162.14 80.1626V80.6637ZM1111.99 80.6637H1111.49C1111.49 80.9404 1111.71 81.1648 1111.99 81.1648V80.6637ZM1222.69 71.2853H1223.19C1223.19 71.0086 1222.97 70.7842 1222.69 70.7842V71.2853ZM1172.54 80.6637V80.1626C1172.26 80.1626 1172.04 80.387 1172.04 80.6637H1172.54ZM1169.89 212.981L1170.26 213.322C1170.26 213.317 1170.26 213.313 1170.27 213.309L1169.89 212.981ZM1162.14 215.835H1161.64C1161.64 216.112 1161.87 216.336 1162.14 216.336V215.835ZM1162.14 80.6637V80.1626H1111.99V80.6637V81.1648H1162.14V80.6637ZM1111.99 80.6637H1112.49C1112.49 77.6176 1113.27 75.4244 1114.73 73.988C1116.2 72.5497 1118.45 71.7864 1121.57 71.7864V71.2853V70.7842C1118.3 70.7842 1115.76 71.584 1114.03 73.2718C1112.31 74.9615 1111.49 77.4576 1111.49 80.6637H1111.99ZM1121.57 71.2853V71.7864H1222.69V71.2853V70.7842H1121.57V71.2853ZM1222.69 71.2853H1222.19C1222.19 74.3314 1221.42 76.5246 1219.95 77.961C1218.48 79.3993 1216.23 80.1626 1213.11 80.1626V80.6637V81.1648C1216.38 81.1648 1218.92 80.365 1220.65 78.6772C1222.38 76.9874 1223.19 74.4914 1223.19 71.2853H1222.69ZM1213.11 80.6637V80.1626H1172.54V80.6637V81.1648H1213.11V80.6637ZM1172.54 80.6637H1172.04V204.622H1172.54H1173.04V80.6637H1172.54ZM1172.54 204.622H1172.04C1172.04 208.073 1171.18 210.73 1169.51 212.652L1169.89 212.981L1170.27 213.309C1172.14 211.154 1173.04 208.238 1173.04 204.622H1172.54ZM1169.89 212.981L1169.52 212.64C1167.88 214.411 1165.45 215.334 1162.14 215.334V215.835V216.336C1165.63 216.336 1168.37 215.356 1170.26 213.322L1169.89 212.981ZM1162.14 215.835H1162.64V80.6637H1162.14H1161.64V215.835H1162.14ZM1249.57 72.7124L1249.24 72.3354C1249.23 72.3427 1249.22 72.3503 1249.21 72.3581L1249.57 72.7124ZM1332.55 76.3823L1332.3 76.8203V76.8203L1332.55 76.3823ZM1346.82 90.6537L1346.38 90.8971L1346.38 90.9013L1346.82 90.6537ZM1329.28 146.109L1329.08 145.652C1328.9 145.734 1328.78 145.912 1328.78 146.109H1329.28ZM1329.28 146.72H1328.78C1328.78 146.931 1328.91 147.12 1329.11 147.191L1329.28 146.72ZM1344.17 158.545L1343.74 158.813C1343.75 158.818 1343.75 158.822 1343.75 158.825L1344.17 158.545ZM1347.02 212.981L1346.65 212.64V212.64L1347.02 212.981ZM1339.27 215.835H1338.77C1338.77 216.112 1339 216.336 1339.27 216.336V215.835ZM1332.55 158.545L1332.18 158.884L1332.18 158.889L1332.55 158.545ZM1258.54 151.206V150.704C1258.26 150.704 1258.04 150.929 1258.04 151.206H1258.54ZM1255.89 212.981L1255.52 212.64L1255.89 212.981ZM1248.14 215.835H1247.64C1247.64 216.112 1247.86 216.336 1248.14 216.336V215.835ZM1332.95 133.264L1332.59 132.919L1332.59 132.919L1332.95 133.264ZM1333.16 89.0227L1332.79 89.3634L1332.8 89.3725L1333.16 89.0227ZM1258.54 80.6637V80.1626C1258.26 80.1626 1258.04 80.387 1258.04 80.6637H1258.54ZM1258.54 141.623H1258.04C1258.04 141.9 1258.26 142.124 1258.54 142.124V141.623ZM1248.14 76.3823H1248.64C1248.64 75.0039 1249.08 73.9134 1249.92 73.0668L1249.57 72.7124L1249.21 72.3581C1248.16 73.4144 1247.64 74.7704 1247.64 76.3823H1248.14ZM1249.57 72.7124L1249.9 73.0896C1250.89 72.221 1252.06 71.7864 1253.44 71.7864V71.2853V70.7842C1251.83 70.7842 1250.42 71.301 1249.24 72.3354L1249.57 72.7124ZM1253.44 71.2853V71.7864H1311.95V71.2853V70.7842H1253.44V71.2853ZM1311.95 71.2853V71.7864C1319.49 71.7864 1326.27 73.4672 1332.3 76.8203L1332.55 76.3823L1332.79 75.9442C1326.59 72.5013 1319.64 70.7842 1311.95 70.7842V71.2853ZM1332.55 76.3823L1332.3 76.8203C1338.34 80.1728 1343.03 84.8625 1346.38 90.8971L1346.82 90.6537L1347.26 90.4104C1343.81 84.2122 1338.99 79.3876 1332.79 75.9442L1332.55 76.3823ZM1346.82 90.6537L1346.38 90.9013C1349.73 96.7984 1351.41 103.507 1351.41 111.042H1351.91H1352.42C1352.42 103.353 1350.7 96.4699 1347.25 90.4062L1346.82 90.6537ZM1351.91 111.042H1351.41C1351.41 118.978 1349.53 125.882 1345.78 131.772L1346.21 132.041L1346.63 132.31C1350.49 126.239 1352.42 119.143 1352.42 111.042H1351.91ZM1346.21 132.041L1345.78 131.772C1342.04 137.658 1336.48 142.288 1329.08 145.652L1329.28 146.109L1329.49 146.565C1337.04 143.133 1342.76 138.385 1346.63 132.31L1346.21 132.041ZM1329.28 146.109H1328.78V146.72H1329.28H1329.78V146.109H1329.28ZM1329.28 146.72L1329.11 147.191C1335.4 149.465 1340.27 153.337 1343.74 158.813L1344.17 158.545L1344.59 158.277C1340.99 152.607 1335.94 148.596 1329.45 146.249L1329.28 146.72ZM1344.17 158.545L1343.75 158.825C1347.36 164.168 1349.17 170.524 1349.17 177.914H1349.67H1350.17C1350.17 170.353 1348.32 163.796 1344.58 158.265L1344.17 158.545ZM1349.67 177.914H1349.17V204.622H1349.67H1350.17V177.914H1349.67ZM1349.67 204.622H1349.17C1349.17 208.217 1348.3 210.862 1346.65 212.64L1347.02 212.981L1347.39 213.322C1349.27 211.294 1350.17 208.366 1350.17 204.622H1349.67ZM1347.02 212.981L1346.65 212.64C1345.01 214.411 1342.58 215.334 1339.27 215.334V215.835V216.336C1342.77 216.336 1345.5 215.356 1347.39 213.322L1347.02 212.981ZM1339.27 215.835H1339.77V179.137H1339.27H1338.77V215.835H1339.27ZM1339.27 179.137H1339.77C1339.77 170.087 1337.51 163.082 1332.91 158.201L1332.55 158.545L1332.18 158.889C1336.55 163.523 1338.77 170.246 1338.77 179.137H1339.27ZM1332.55 158.545L1332.92 158.207C1328.31 153.185 1321.78 150.704 1313.38 150.704V151.206V151.707C1321.57 151.707 1327.81 154.119 1332.18 158.884L1332.55 158.545ZM1313.38 151.206V150.704H1258.54V151.206V151.707H1313.38V151.206ZM1258.54 151.206H1258.04V204.622H1258.54H1259.04V151.206H1258.54ZM1258.54 204.622H1258.04C1258.04 208.217 1257.17 210.862 1255.52 212.64L1255.89 212.981L1256.25 213.322C1258.14 211.294 1259.04 208.366 1259.04 204.622H1258.54ZM1255.89 212.981L1255.52 212.64C1253.88 214.411 1251.44 215.334 1248.14 215.334V215.835V216.336C1251.63 216.336 1254.37 215.356 1256.25 213.322L1255.89 212.981ZM1248.14 215.835H1248.64V76.3823H1248.14H1247.64V215.835H1248.14ZM1312.16 141.623V142.124C1320.84 142.124 1327.91 139.293 1333.32 133.61L1332.95 133.264L1332.59 132.919C1327.4 138.38 1320.6 141.122 1312.16 141.122V141.623ZM1332.95 133.264L1333.32 133.61C1338.86 127.794 1341.61 120.255 1341.61 111.042H1341.11H1340.61C1340.61 120.041 1337.93 127.318 1332.59 132.919L1332.95 133.264ZM1341.11 111.042H1341.61C1341.61 101.699 1338.93 94.2228 1333.52 88.6729L1333.16 89.0227L1332.8 89.3725C1337.99 94.6961 1340.61 101.9 1340.61 111.042H1341.11ZM1333.16 89.0227L1333.53 88.6821C1328.25 82.9902 1321.11 80.1626 1312.16 80.1626V80.6637V81.1648C1320.88 81.1648 1327.74 83.9099 1332.79 89.3633L1333.16 89.0227ZM1312.16 80.6637V80.1626H1258.54V80.6637V81.1648H1312.16V80.6637ZM1258.54 80.6637H1258.04V141.623H1258.54H1259.04V80.6637H1258.54ZM1258.54 141.623V142.124H1312.16V141.623V141.122H1258.54V141.623ZM1383.96 215.835L1383.72 216.277C1383.85 216.345 1384 216.355 1384.13 216.304C1384.27 216.254 1384.38 216.149 1384.43 216.015L1383.96 215.835ZM1379.07 211.35L1378.62 211.585C1378.63 211.597 1378.64 211.609 1378.65 211.621L1379.07 211.35ZM1378.05 201.971L1378.51 202.169C1378.51 202.164 1378.51 202.159 1378.51 202.155L1378.05 201.971ZM1429.02 72.5086L1428.55 72.3225L1428.55 72.325L1429.02 72.5086ZM1438.8 72.5086L1438.32 72.6462C1438.33 72.6616 1438.33 72.6768 1438.34 72.6918L1438.8 72.5086ZM1489.57 201.767L1489.1 201.95C1489.1 201.955 1489.11 201.96 1489.11 201.965L1489.57 201.767ZM1488.35 211.553L1487.92 211.296L1487.91 211.305L1488.35 211.553ZM1483.66 215.835L1483.19 216.01C1483.24 216.141 1483.34 216.246 1483.47 216.299C1483.6 216.352 1483.74 216.348 1483.87 216.289L1483.66 215.835ZM1466.12 168.739L1466.59 168.564C1466.52 168.368 1466.33 168.238 1466.12 168.238V168.739ZM1402.1 168.739V168.238C1401.9 168.238 1401.71 168.366 1401.64 168.559L1402.1 168.739ZM1462.25 159.157V159.658C1462.41 159.658 1462.57 159.576 1462.66 159.439C1462.76 159.303 1462.78 159.129 1462.72 158.975L1462.25 159.157ZM1431.87 81.2753L1432.34 81.0932C1432.28 80.9519 1432.17 80.8431 1432.02 80.7975C1431.88 80.7518 1431.72 80.7742 1431.59 80.8584L1431.87 81.2753ZM1431.26 81.6831L1430.98 81.2662C1430.79 81.3937 1430.71 81.6351 1430.79 81.8516L1431.26 81.6831ZM1433.3 87.3917L1433.77 87.5723C1433.81 87.4602 1433.81 87.3363 1433.77 87.2231L1433.3 87.3917ZM1405.57 159.157L1405.1 158.976C1405.04 159.13 1405.06 159.304 1405.16 159.44C1405.25 159.576 1405.41 159.658 1405.57 159.658V159.157ZM1383.96 215.835L1384.2 215.393C1382.23 214.345 1380.66 212.908 1379.49 211.079L1379.07 211.35L1378.65 211.621C1379.92 213.597 1381.61 215.15 1383.72 216.277L1383.96 215.835ZM1379.07 211.35L1379.51 211.114C1378.45 209.138 1377.94 207.179 1377.94 205.233H1377.44H1376.93C1376.93 207.365 1377.5 209.484 1378.62 211.585L1379.07 211.35ZM1377.44 205.233H1377.94C1377.94 204.066 1378.13 203.047 1378.51 202.169L1378.05 201.971L1377.59 201.774C1377.15 202.798 1376.93 203.954 1376.93 205.233H1377.44ZM1378.05 201.971L1378.51 202.155L1429.48 72.6921L1429.02 72.5086L1428.55 72.325L1377.58 201.788L1378.05 201.971ZM1429.02 72.5086L1429.48 72.6947C1429.86 71.7595 1430.4 71.0854 1431.12 70.6398C1431.83 70.1918 1432.76 69.9515 1433.91 69.9515V69.4504V68.9493C1432.62 68.9493 1431.5 69.2187 1430.59 69.79C1429.67 70.3639 1428.99 71.2189 1428.55 72.3225L1429.02 72.5086ZM1433.91 69.4504V69.9515C1434.91 69.9515 1435.84 70.2002 1436.72 70.701L1436.97 70.2659L1437.22 69.8309C1436.19 69.2443 1435.09 68.9493 1433.91 68.9493V69.4504ZM1436.97 70.2659L1436.72 70.701C1437.57 71.1874 1438.09 71.8346 1438.32 72.6462L1438.8 72.5086L1439.28 72.3709C1438.97 71.2797 1438.27 70.4318 1437.22 69.8309L1436.97 70.2659ZM1438.8 72.5086L1438.34 72.6918L1489.1 201.95L1489.57 201.767L1490.04 201.584L1439.27 72.3254L1438.8 72.5086ZM1489.57 201.767L1489.11 201.965C1489.48 202.838 1489.68 203.922 1489.68 205.233H1490.18H1490.68C1490.68 203.826 1490.47 202.6 1490.03 201.57L1489.57 201.767ZM1490.18 205.233H1489.68C1489.68 207.309 1489.1 209.327 1487.92 211.296L1488.35 211.553L1488.78 211.811C1490.04 209.702 1490.68 207.507 1490.68 205.233H1490.18ZM1488.35 211.553L1487.91 211.305C1486.88 213.115 1485.39 214.472 1483.44 215.381L1483.66 215.835L1483.87 216.289C1486 215.295 1487.64 213.797 1488.78 211.802L1488.35 211.553ZM1483.66 215.835L1484.13 215.66L1466.59 168.564L1466.12 168.739L1465.65 168.914L1483.19 216.01L1483.66 215.835ZM1466.12 168.739V168.238H1402.1V168.739V169.24H1466.12V168.739ZM1402.1 168.739L1401.64 168.559L1383.49 215.655L1383.96 215.835L1384.43 216.015L1402.57 168.919L1402.1 168.739ZM1462.25 159.157L1462.72 158.975L1432.34 81.0932L1431.87 81.2753L1431.4 81.4574L1461.78 159.339L1462.25 159.157ZM1431.87 81.2753L1431.59 80.8584L1430.98 81.2662L1431.26 81.6831L1431.54 82.1L1432.15 81.6922L1431.87 81.2753ZM1431.26 81.6831L1430.79 81.8516L1432.83 87.5602L1433.3 87.3917L1433.77 87.2231L1431.73 81.5146L1431.26 81.6831ZM1433.3 87.3917L1432.83 87.2111L1405.1 158.976L1405.57 159.157L1406.04 159.337L1433.77 87.5723L1433.3 87.3917ZM1405.57 159.157V159.658H1462.25V159.157V158.656H1405.57V159.157ZM1539.44 80.6637H1539.94C1539.94 80.387 1539.71 80.1626 1539.44 80.1626V80.6637ZM1489.28 80.6637H1488.78C1488.78 80.9404 1489.01 81.1648 1489.28 81.1648V80.6637ZM1599.99 71.2853H1600.49C1600.49 71.0086 1600.26 70.7842 1599.99 70.7842V71.2853ZM1549.83 80.6637V80.1626C1549.56 80.1626 1549.33 80.387 1549.33 80.6637H1549.83ZM1547.18 212.981L1547.55 213.322C1547.55 213.317 1547.56 213.313 1547.56 213.309L1547.18 212.981ZM1539.44 215.835H1538.93C1538.93 216.112 1539.16 216.336 1539.44 216.336V215.835ZM1539.44 80.6637V80.1626H1489.28V80.6637V81.1648H1539.44V80.6637ZM1489.28 80.6637H1489.78C1489.78 77.6176 1490.56 75.4244 1492.03 73.988C1493.5 72.5497 1495.74 71.7864 1498.86 71.7864V71.2853V70.7842C1495.6 70.7842 1493.05 71.584 1491.33 73.2718C1489.6 74.9615 1488.78 77.4576 1488.78 80.6637H1489.28ZM1498.86 71.2853V71.7864H1599.99V71.2853V70.7842H1498.86V71.2853ZM1599.99 71.2853H1599.49C1599.49 74.3314 1598.71 76.5246 1597.24 77.961C1595.77 79.3993 1593.53 80.1626 1590.41 80.1626V80.6637V81.1648C1593.67 81.1648 1596.22 80.365 1597.94 78.6772C1599.67 76.9874 1600.49 74.4914 1600.49 71.2853H1599.99ZM1590.41 80.6637V80.1626H1549.83V80.6637V81.1648H1590.41V80.6637ZM1549.83 80.6637H1549.33V204.622H1549.83H1550.33V80.6637H1549.83ZM1549.83 204.622H1549.33C1549.33 208.073 1548.47 210.73 1546.8 212.652L1547.18 212.981L1547.56 213.309C1549.43 211.154 1550.33 208.238 1550.33 204.622H1549.83ZM1547.18 212.981L1546.82 212.64C1545.17 214.411 1542.74 215.334 1539.44 215.334V215.835V216.336C1542.93 216.336 1545.66 215.356 1547.55 213.322L1547.18 212.981ZM1539.44 215.835H1539.94V80.6637H1539.44H1538.93V215.835H1539.44ZM1626.86 72.9163L1627.22 73.2706V73.2706L1626.86 72.9163ZM1720.44 71.2853H1720.94C1720.94 71.0086 1720.72 70.7842 1720.44 70.7842V71.2853ZM1635.83 80.6637V80.1626C1635.56 80.1626 1635.33 80.387 1635.33 80.6637H1635.83ZM1635.83 137.342H1635.33C1635.33 137.619 1635.56 137.843 1635.83 137.843V137.342ZM1695.98 137.342H1696.48C1696.48 137.065 1696.25 136.841 1695.98 136.841V137.342ZM1635.83 146.924V146.423C1635.56 146.423 1635.33 146.647 1635.33 146.924H1635.83ZM1635.83 204.622H1635.33C1635.33 204.898 1635.56 205.123 1635.83 205.123V204.622ZM1724.52 214V214.501C1724.8 214.501 1725.02 214.277 1725.02 214H1724.52ZM1626.86 212.573L1626.48 212.903C1626.5 212.92 1626.51 212.935 1626.53 212.95L1626.86 212.573ZM1625.43 76.3823H1625.94C1625.94 75.1544 1626.36 74.127 1627.22 73.2706L1626.86 72.9163L1626.51 72.562C1625.46 73.6085 1624.93 74.8917 1624.93 76.3823H1625.43ZM1626.86 72.9163L1627.22 73.2706C1628.21 72.2743 1629.38 71.7864 1630.74 71.7864V71.2853V70.7842C1629.1 70.7842 1627.69 71.3837 1626.51 72.562L1626.86 72.9163ZM1630.74 71.2853V71.7864H1720.44V71.2853V70.7842H1630.74V71.2853ZM1720.44 71.2853H1719.94C1719.94 74.323 1719.12 76.5123 1717.55 77.9503C1715.98 79.3957 1713.58 80.1626 1710.25 80.1626V80.6637V81.1648C1713.71 81.1648 1716.41 80.3686 1718.23 78.6879C1720.07 76.9998 1720.94 74.4999 1720.94 71.2853H1720.44ZM1710.25 80.6637V80.1626H1635.83V80.6637V81.1648H1710.25V80.6637ZM1635.83 80.6637H1635.33V137.342H1635.83H1636.33V80.6637H1635.83ZM1635.83 137.342V137.843H1695.98V137.342V136.841H1635.83V137.342ZM1695.98 137.342H1695.48C1695.48 140.448 1694.63 142.688 1693.04 144.16C1691.43 145.639 1688.98 146.423 1685.58 146.423V146.924V147.425C1689.11 147.425 1691.86 146.612 1693.72 144.897C1695.58 143.175 1696.48 140.624 1696.48 137.342H1695.98ZM1685.58 146.924V146.423H1635.83V146.924V147.425H1685.58V146.924ZM1635.83 146.924H1635.33V204.622H1635.83H1636.33V146.924H1635.83ZM1635.83 204.622V205.123H1714.53V204.622V204.121H1635.83V204.622ZM1714.53 204.622V205.123C1717.79 205.123 1720.14 205.888 1721.68 207.332C1723.21 208.769 1724.02 210.959 1724.02 214H1724.52H1725.02C1725.02 210.788 1724.16 208.29 1722.36 206.601C1720.57 204.918 1717.93 204.121 1714.53 204.121V204.622ZM1724.52 214V213.499H1630.74V214V214.501H1724.52V214ZM1630.74 214V213.499C1629.36 213.499 1628.18 213.064 1627.19 212.196L1626.86 212.573L1626.53 212.95C1627.71 213.984 1629.12 214.501 1630.74 214.501V214ZM1626.86 212.573L1627.24 212.243C1626.37 211.25 1625.94 210.078 1625.94 208.699H1625.43H1624.93C1624.93 210.311 1625.45 211.721 1626.48 212.903L1626.86 212.573ZM1625.43 208.699H1625.94V76.3823H1625.43H1624.93V208.699H1625.43ZM1767.57 210.126L1767.36 210.58L1767.37 210.584L1767.57 210.126ZM1747.8 193.816L1747.38 194.09L1747.38 194.1L1747.8 193.816ZM1747.8 91.4692L1747.38 91.1857L1747.38 91.1913L1747.8 91.4692ZM1767.57 75.3629L1767.78 75.8196L1767.78 75.8167L1767.57 75.3629ZM1825.07 74.7512L1824.87 75.2133V75.2133L1825.07 74.7512ZM1844.64 89.6343L1844.23 89.9281L1844.24 89.9336L1844.64 89.6343ZM1848.92 118.585L1848.57 118.231L1848.92 118.585ZM1841.78 121.439L1841.3 121.318C1841.26 121.471 1841.3 121.634 1841.4 121.757C1841.5 121.879 1841.65 121.947 1841.81 121.94L1841.78 121.439ZM1836.08 96.5662L1835.66 96.8488L1835.67 96.8555L1836.08 96.5662ZM1819.97 83.518L1820.18 83.0612V83.0612L1819.97 83.518ZM1772.87 83.518L1773.08 83.9766L1773.08 83.9748L1772.87 83.518ZM1756.97 96.3623L1757.38 96.6497L1757.38 96.6449L1756.97 96.3623ZM1773.08 201.767L1773.28 201.311V201.311L1773.08 201.767ZM1836.69 188.515L1836.27 188.23L1836.27 188.237L1836.69 188.515ZM1842.6 152.225H1843.1C1843.1 151.948 1842.88 151.724 1842.6 151.724V152.225ZM1800.4 149.575L1800.04 149.929C1800.05 149.933 1800.05 149.937 1800.06 149.942L1800.4 149.575ZM1797.75 142.643V142.142C1797.47 142.142 1797.25 142.366 1797.25 142.643H1797.75ZM1851.16 144.07L1850.81 144.424C1850.82 144.432 1850.82 144.44 1850.83 144.447L1851.16 144.07ZM1845.66 193.408L1846.07 193.688V193.688L1845.66 193.408ZM1825.68 209.922L1825.47 209.467L1825.47 209.469L1825.68 209.922ZM1796.73 215.835V215.334C1785.91 215.334 1776.27 213.441 1767.78 209.668L1767.57 210.126L1767.37 210.584C1776.01 214.423 1785.79 216.336 1796.73 216.336V215.835ZM1767.57 210.126L1767.78 209.672C1759.43 205.765 1752.91 200.383 1748.21 193.533L1747.8 193.816L1747.38 194.1C1752.2 201.113 1758.86 206.605 1767.36 210.58L1767.57 210.126ZM1747.8 193.816L1748.22 193.542C1743.65 186.561 1741.37 178.638 1741.37 169.758H1740.86H1740.36C1740.36 178.82 1742.7 186.936 1747.38 194.09L1747.8 193.816ZM1740.86 169.758H1741.37V115.119H1740.86H1740.36V169.758H1740.86ZM1740.86 115.119H1741.37C1741.37 106.377 1743.65 98.5917 1748.21 91.7472L1747.8 91.4692L1747.38 91.1913C1742.7 98.2105 1740.36 106.192 1740.36 115.119H1740.86ZM1747.8 91.4692L1748.21 91.7528C1752.91 84.9039 1759.43 79.5914 1767.78 75.8195L1767.57 75.3629L1767.37 74.9062C1758.86 78.7458 1752.2 84.1709 1747.38 91.1857L1747.8 91.4692ZM1767.57 75.3629L1767.78 75.8167C1776.14 71.9106 1785.64 69.9515 1796.32 69.9515V69.4504V68.9493C1785.52 68.9493 1775.86 70.9318 1767.36 74.909L1767.57 75.3629ZM1796.32 69.4504V69.9515C1807 69.9515 1816.52 71.7093 1824.87 75.2133L1825.07 74.7512L1825.26 74.2892C1816.76 70.7254 1807.11 68.9493 1796.32 68.9493V69.4504ZM1825.07 74.7512L1824.87 75.2133C1833.23 78.7174 1839.67 83.6256 1844.23 89.928L1844.64 89.6343L1845.04 89.3407C1840.36 82.8667 1833.76 77.8529 1825.26 74.2892L1825.07 74.7512ZM1844.64 89.6343L1844.24 89.9336C1848.93 96.2331 1851.27 103.399 1851.27 111.449H1851.77H1852.28C1852.28 103.189 1849.86 95.8119 1845.04 89.3351L1844.64 89.6343ZM1851.77 111.449H1851.27C1851.27 114.18 1850.37 116.428 1848.57 118.231L1848.92 118.585L1849.27 118.939C1851.28 116.936 1852.28 114.428 1852.28 111.449H1851.77ZM1848.92 118.585L1848.57 118.231C1846.9 119.892 1844.65 120.807 1841.76 120.939L1841.78 121.439L1841.81 121.94C1844.9 121.799 1847.4 120.812 1849.27 118.939L1848.92 118.585ZM1841.78 121.439L1842.27 121.561C1842.35 121.228 1842.4 120.56 1842.44 119.622C1842.47 118.662 1842.49 117.364 1842.49 115.731H1841.99H1841.49C1841.49 117.359 1841.47 118.644 1841.44 119.587C1841.4 120.552 1841.35 121.107 1841.3 121.318L1841.78 121.439ZM1841.99 115.731H1842.49C1842.49 108.429 1840.49 101.939 1836.48 96.2768L1836.08 96.5662L1835.67 96.8555C1839.54 102.339 1841.49 108.625 1841.49 115.731H1841.99ZM1836.08 96.5662L1836.49 96.2836C1832.63 90.6256 1827.18 86.2203 1820.18 83.0612L1819.97 83.518L1819.76 83.9748C1826.62 87.0679 1831.91 91.3615 1835.66 96.8488L1836.08 96.5662ZM1819.97 83.518L1820.18 83.0612C1813.17 79.9015 1805.21 78.3277 1796.32 78.3277V78.8288V79.3299C1805.09 79.3299 1812.91 80.8822 1819.76 83.9748L1819.97 83.518ZM1796.32 78.8288V78.3277C1787.56 78.3277 1779.67 79.902 1772.67 83.0612L1772.87 83.518L1773.08 83.9748C1779.94 80.8817 1787.68 79.3299 1796.32 79.3299V78.8288ZM1772.87 83.518L1772.67 83.0594C1765.8 86.0834 1760.42 90.4221 1756.56 96.0797L1756.97 96.3623L1757.38 96.6449C1761.13 91.1572 1766.36 86.933 1773.08 83.9766L1772.87 83.518ZM1756.97 96.3623L1756.56 96.075C1752.69 101.602 1750.76 107.956 1750.76 115.119H1751.26H1751.76C1751.76 108.147 1753.64 101.997 1757.38 96.6497L1756.97 96.3623ZM1751.26 115.119H1750.76V169.758H1751.26H1751.76V115.119H1751.26ZM1751.26 169.758H1750.76C1750.76 176.922 1752.69 183.342 1756.56 189.002L1756.97 188.719L1757.38 188.437C1753.64 182.951 1751.76 176.73 1751.76 169.758H1751.26ZM1756.97 188.719L1756.56 189.002C1760.42 194.66 1765.87 199.065 1772.87 202.224L1773.08 201.767L1773.28 201.311C1766.42 198.217 1761.13 193.924 1757.38 188.437L1756.97 188.719ZM1773.08 201.767L1772.87 202.224C1779.88 205.384 1787.83 206.958 1796.73 206.958V206.457V205.955C1787.95 205.955 1780.14 204.403 1773.28 201.311L1773.08 201.767ZM1796.73 206.457V206.958C1805.76 206.958 1813.78 205.384 1820.79 202.224L1820.58 201.767L1820.37 201.311C1813.52 204.403 1805.64 205.955 1796.73 205.955V206.457ZM1820.58 201.767L1820.79 202.224C1827.79 199.064 1833.24 194.588 1837.1 188.793L1836.69 188.515L1836.27 188.237C1832.52 193.859 1827.23 198.219 1820.37 201.311L1820.58 201.767ZM1836.69 188.515L1837.1 188.8C1841.1 183.004 1843.1 176.448 1843.1 169.147H1842.6H1842.1C1842.1 176.253 1840.16 182.609 1836.27 188.231L1836.69 188.515ZM1842.6 169.147H1843.1V152.225H1842.6H1842.1V169.147H1842.6ZM1842.6 152.225V151.724H1807.74V152.225V152.726H1842.6V152.225ZM1807.74 152.225V151.724C1804.85 151.724 1802.53 150.875 1800.74 149.207L1800.4 149.575L1800.06 149.942C1802.07 151.808 1804.64 152.726 1807.74 152.726V152.225ZM1800.4 149.575L1800.75 149.22C1799.09 147.561 1798.25 145.385 1798.25 142.643H1797.75H1797.25C1797.25 145.609 1798.17 148.054 1800.04 149.929L1800.4 149.575ZM1797.75 142.643V143.144H1847.49V142.643V142.142H1797.75V142.643ZM1847.49 142.643V143.144C1848.87 143.144 1849.96 143.577 1850.81 144.424L1851.16 144.07L1851.52 143.715C1850.46 142.659 1849.1 142.142 1847.49 142.142V142.643ZM1851.16 144.07L1850.83 144.447C1851.81 145.299 1852.29 146.383 1852.29 147.74H1852.79H1853.29C1853.29 146.106 1852.69 144.743 1851.49 143.693L1851.16 144.07ZM1852.79 147.74H1852.29V169.147H1852.79H1853.29V147.74H1852.79ZM1852.79 169.147H1852.29C1852.29 178.161 1849.94 186.149 1845.24 193.129L1845.66 193.408L1846.07 193.688C1850.89 186.532 1853.29 178.346 1853.29 169.147H1852.79ZM1845.66 193.408L1845.24 193.129C1840.54 200.112 1833.96 205.56 1825.47 209.467L1825.68 209.922L1825.89 210.378C1834.52 206.402 1841.26 200.84 1846.07 193.688L1845.66 193.408ZM1825.68 209.922L1825.47 209.469C1817.12 213.374 1807.54 215.334 1796.73 215.334V215.835V216.336C1807.66 216.336 1817.39 214.354 1825.89 210.376L1825.68 209.922ZM1922.97 161.399H1923.47C1923.47 161.313 1923.45 161.228 1923.4 161.152L1922.97 161.399ZM1872 71.4892L1871.69 71.092C1871.5 71.2443 1871.44 71.519 1871.56 71.7363L1872 71.4892ZM1882.19 70.6737L1881.94 71.1033C1881.95 71.1131 1881.97 71.122 1881.99 71.1298L1882.19 70.6737ZM1885.46 73.7318L1885.01 73.9559C1885.01 73.9605 1885.01 73.9651 1885.01 73.9696L1885.46 73.7318ZM1927.66 152.021L1928.1 152.258C1928.18 152.109 1928.18 151.931 1928.1 151.783L1927.66 152.021ZM1924.6 157.73L1924.16 157.493C1924.09 157.619 1924.08 157.767 1924.13 157.901C1924.18 158.035 1924.28 158.142 1924.41 158.195L1924.6 157.73ZM1925.62 158.137L1925.43 158.603C1925.67 158.697 1925.94 158.599 1926.06 158.375L1925.62 158.137ZM1971.08 73.7318L1971.53 73.9695C1971.53 73.965 1971.53 73.9605 1971.53 73.9559L1971.08 73.7318ZM1974.14 70.6737L1974.37 71.1218C1974.37 71.1192 1974.38 71.1164 1974.38 71.1136L1974.14 70.6737ZM1984.74 71.4892L1985.18 71.7378C1985.31 71.5145 1985.24 71.2309 1985.04 71.0814L1984.74 71.4892ZM1933.37 161.399L1932.93 161.151C1932.89 161.227 1932.87 161.312 1932.87 161.399H1933.37ZM1930.72 212.981L1931.08 213.322V213.322L1930.72 212.981ZM1922.97 215.835H1922.47C1922.47 216.112 1922.69 216.336 1922.97 216.336V215.835ZM1922.97 161.399L1923.4 161.152L1872.44 71.2421L1872 71.4892L1871.56 71.7363L1922.53 161.647L1922.97 161.399ZM1872 71.4892L1872.3 71.8863C1874 70.5825 1875.73 69.9515 1877.5 69.9515V69.4504V68.9493C1875.47 68.9493 1873.53 69.6775 1871.69 71.092L1872 71.4892ZM1877.5 69.4504V69.9515C1879.19 69.9515 1880.66 70.3398 1881.94 71.1033L1882.19 70.6737L1882.45 70.244C1881.01 69.3766 1879.35 68.9493 1877.5 68.9493V69.4504ZM1882.19 70.6737L1881.99 71.1298C1883.39 71.766 1884.38 72.7079 1885.01 73.9559L1885.46 73.7318L1885.9 73.5078C1885.17 72.0374 1883.99 70.9405 1882.4 70.2175L1882.19 70.6737ZM1885.46 73.7318L1885.01 73.9696L1927.22 152.259L1927.66 152.021L1928.1 151.783L1885.9 73.4941L1885.46 73.7318ZM1927.66 152.021L1927.22 151.784L1924.16 157.493L1924.6 157.73L1925.04 157.966L1928.1 152.258L1927.66 152.021ZM1924.6 157.73L1924.41 158.195L1925.43 158.603L1925.62 158.137L1925.81 157.672L1924.79 157.264L1924.6 157.73ZM1925.62 158.137L1926.06 158.375L1971.53 73.9695L1971.08 73.7318L1970.64 73.4942L1925.18 157.9L1925.62 158.137ZM1971.08 73.7318L1971.53 73.9559C1972.16 72.6937 1973.1 71.753 1974.37 71.1218L1974.14 70.6737L1973.92 70.2255C1972.46 70.9536 1971.36 72.0516 1970.64 73.5078L1971.08 73.7318ZM1974.14 70.6737L1974.38 71.1136C1975.8 70.3397 1977.35 69.9515 1979.04 69.9515V69.4504V68.9493C1977.19 68.9493 1975.47 69.3766 1973.9 70.2338L1974.14 70.6737ZM1979.04 69.4504V69.9515C1980.81 69.9515 1982.62 70.5843 1984.45 71.8969L1984.74 71.4892L1985.04 71.0814C1983.07 69.6757 1981.06 68.9493 1979.04 68.9493V69.4504ZM1984.74 71.4892L1984.31 71.2406L1932.93 161.151L1933.37 161.399L1933.8 161.648L1985.18 71.7378L1984.74 71.4892ZM1933.37 161.399H1932.87V204.622H1933.37H1933.87V161.399H1933.37ZM1933.37 204.622H1932.87C1932.87 208.217 1932 210.862 1930.35 212.64L1930.72 212.981L1931.08 213.322C1932.97 211.294 1933.87 208.366 1933.87 204.622H1933.37ZM1930.72 212.981L1930.35 212.64C1928.7 214.411 1926.27 215.334 1922.97 215.334V215.835V216.336C1926.46 216.336 1929.19 215.356 1931.08 213.322L1930.72 212.981ZM1922.97 215.835H1923.47V161.399H1922.97H1922.47V215.835H1922.97Z" fill="#163255"/>
</svg>
