<svg width="993" height="177" viewBox="0 0 993 177" fill="none" xmlns="http://www.w3.org/2000/svg">
<path d="M59.9516 28.3917H0.500746C0.500746 11.2659 8.41122 2.70306 24.2322 2.70306H148.516C148.516 11.1844 146.477 17.6269 142.4 22.0307C138.485 26.2714 132.614 28.3917 124.785 28.3917H89.3101V153.654C89.3101 160.831 86.782 166.376 81.7258 170.291C76.6696 174.205 69.4116 176.163 59.9516 176.163V28.3917ZM158.96 176.163C152.599 175.347 147.624 173.064 144.036 169.312C140.448 165.398 138.654 160.668 138.654 155.122C138.654 150.719 139.714 146.315 141.834 141.911L198.594 10.0427C201.367 3.68168 206.178 0.501174 213.028 0.501174C219.716 0.501174 224.527 3.68168 227.463 10.0427L284.223 141.911C286.18 146.478 287.158 150.8 287.158 154.878C287.158 160.586 285.364 165.398 281.776 169.312C278.188 173.064 273.213 175.347 266.852 176.163L246.057 128.21H179.755L158.96 176.163ZM237.004 102.766L208.625 31.5722L205.933 32.5508L211.56 46.4961L188.808 102.766H237.004ZM371.585 176.163C357.232 176.163 344.755 174.287 334.153 170.536C323.551 166.784 315.396 161.646 309.688 155.122C304.142 148.598 301.369 141.096 301.369 132.614C301.369 119.403 309.688 112.797 326.324 112.797C326.65 125.682 330.728 135.469 338.557 142.156C346.549 148.843 357.721 152.187 372.074 152.187C384.633 152.187 394.338 150.066 401.188 145.826C408.038 141.585 411.464 135.469 411.464 127.476C411.464 122.42 410.159 118.343 407.549 115.244C404.94 111.982 400.536 109.127 394.338 106.681C388.14 104.071 379.169 101.462 367.426 98.852C351.768 95.4268 339.372 91.4308 330.239 86.864C321.268 82.2971 314.744 76.8332 310.666 70.4722C306.589 64.1112 304.55 56.2007 304.55 46.7407C304.55 37.607 307.241 29.5334 312.623 22.52C318.006 15.5066 325.59 10.1242 335.376 6.37286C345.162 2.4584 356.498 0.501174 369.383 0.501174C381.616 0.501174 392.625 2.21375 402.411 5.63891C412.198 8.90096 419.863 13.5494 425.409 19.5842C430.954 25.619 433.727 32.5508 433.727 40.3797C433.727 51.6338 425.817 57.5055 409.996 57.9948C408.691 46.2514 404.776 37.6886 398.252 32.3062C391.891 26.9238 382.268 24.2326 369.383 24.2326C357.966 24.2326 349.158 26.1898 342.961 30.1043C336.763 34.0187 333.664 39.5642 333.664 46.7407C333.664 51.6338 334.805 55.7114 337.089 58.9734C339.535 62.0724 343.531 64.8451 349.077 67.2917C354.622 69.5751 362.614 71.8585 373.053 74.142C389.689 77.8933 402.901 82.134 412.687 86.864C422.473 91.4308 429.486 96.9763 433.727 103.5C438.131 109.861 440.333 117.853 440.333 127.476C440.333 137.426 437.478 146.07 431.77 153.41C426.224 160.749 418.232 166.376 407.794 170.291C397.518 174.205 385.449 176.163 371.585 176.163ZM474.095 176.163C467.734 175.347 462.759 173.064 459.171 169.312C455.583 165.398 453.789 160.668 453.789 155.122C453.789 150.719 454.849 146.315 456.969 141.911L513.729 10.0427C516.502 3.68168 521.313 0.501174 528.163 0.501174C534.851 0.501174 539.662 3.68168 542.598 10.0427L599.358 141.911C601.315 146.478 602.294 150.8 602.294 154.878C602.294 160.586 600.499 165.398 596.911 169.312C593.323 173.064 588.348 175.347 581.987 176.163L561.192 128.21H494.891L474.095 176.163ZM552.14 102.766L523.76 31.5722L521.069 32.5508L526.696 46.4961L503.943 102.766H552.14ZM627.854 23.254C627.854 15.9144 630.382 10.2873 635.438 6.37286C640.658 2.4584 647.916 0.501174 657.213 0.501174V80.7476L741.618 0.501174C745.369 3.27392 748.387 6.29132 750.67 9.55336C752.954 12.8154 754.095 15.6697 754.095 18.1163C754.095 20.3997 753.28 22.7647 751.649 25.2112C750.018 27.6577 747.734 30.2674 744.799 33.0401L692.932 81.7262L762.414 167.11C757.684 173.145 751.894 176.163 745.043 176.163C737.704 176.163 731.75 173.39 727.184 167.844L672.626 100.32L657.213 114.754V154.633C657.213 161.973 654.848 167.437 650.118 171.025C645.388 174.45 637.966 176.163 627.854 176.163V23.254ZM792.584 23.0093C792.584 15.8328 795.113 10.2873 800.169 6.37286C805.388 2.4584 812.646 0.501174 821.943 0.501174V153.41C821.943 160.586 819.415 166.213 814.359 170.291C809.302 174.205 802.044 176.163 792.584 176.163V23.0093ZM922.773 176.163C908.42 176.163 895.942 174.287 885.341 170.536C874.739 166.784 866.584 161.646 860.875 155.122C855.33 148.598 852.557 141.096 852.557 132.614C852.557 119.403 860.875 112.797 877.512 112.797C877.838 125.682 881.916 135.469 889.745 142.156C897.737 148.843 908.909 152.187 923.262 152.187C935.821 152.187 945.526 150.066 952.376 145.826C959.226 141.585 962.651 135.469 962.651 127.476C962.651 122.42 961.347 118.343 958.737 115.244C956.127 111.982 951.723 109.127 945.526 106.681C939.328 104.071 930.357 101.462 918.614 98.852C902.956 95.4268 890.56 91.4308 881.426 86.864C872.456 82.2971 865.932 76.8332 861.854 70.4722C857.776 64.1112 855.738 56.2007 855.738 46.7407C855.738 37.607 858.429 29.5334 863.811 22.52C869.194 15.5066 876.778 10.1242 886.564 6.37286C896.35 2.4584 907.686 0.501174 920.571 0.501174C932.804 0.501174 943.813 2.21375 953.599 5.63891C963.385 8.90096 971.051 13.5494 976.597 19.5842C982.142 25.619 984.915 32.5508 984.915 40.3797C984.915 51.6338 977.004 57.5055 961.183 57.9948C959.879 46.2514 955.964 37.6886 949.44 32.3062C943.079 26.9238 933.456 24.2326 920.571 24.2326C909.154 24.2326 900.346 26.1898 894.148 30.1043C887.95 34.0187 884.851 39.5642 884.851 46.7407C884.851 51.6338 885.993 55.7114 888.277 58.9734C890.723 62.0724 894.719 64.8451 900.265 67.2917C905.81 69.5751 913.802 71.8585 924.241 74.142C940.877 77.8933 954.088 82.134 963.875 86.864C973.661 91.4308 980.674 96.9763 984.915 103.5C989.319 109.861 991.52 117.853 991.52 127.476C991.52 137.426 988.666 146.07 982.958 153.41C977.412 160.749 969.42 166.376 958.982 170.291C948.706 174.205 936.636 176.163 922.773 176.163Z" fill="#163255"/>
<path d="M59.9516 28.3917H60.4527C60.4527 28.115 60.2283 27.8906 59.9516 27.8906V28.3917ZM0.500745 28.3917H-0.000324249C-0.000324249 28.6684 0.224012 28.8928 0.500745 28.8928V28.3917ZM148.516 2.70306H149.017C149.017 2.42633 148.793 2.202 148.516 2.202V2.70306ZM142.4 22.0307L142.032 21.6903L142.032 21.6908L142.4 22.0307ZM89.3101 28.3917V27.8906C89.0333 27.8906 88.809 28.115 88.809 28.3917H89.3101ZM81.7258 170.291L81.4191 169.895V169.895L81.7258 170.291ZM59.9516 176.163H59.4505C59.4505 176.439 59.6749 176.664 59.9516 176.664V176.163ZM59.9516 28.3917V27.8906H0.500745V28.3917V28.8928H59.9516V28.3917ZM0.500745 28.3917H1.00182C1.00182 19.8966 2.9646 13.6187 6.80165 9.46523C10.6318 5.31921 16.4096 3.20413 24.2322 3.20413V2.70306V2.202C16.2338 2.202 10.1459 4.36833 6.06555 8.7852C1.99213 13.1946 -0.000324249 19.761 -0.000324249 28.3917H0.500745ZM24.2322 2.70306V3.20413H148.516V2.70306V2.202H24.2322V2.70306ZM148.516 2.70306H148.015C148.015 11.1103 145.994 17.4114 142.032 21.6903L142.4 22.0307L142.768 22.3711C146.961 17.8425 149.017 11.2585 149.017 2.70306H148.516ZM142.4 22.0307L142.032 21.6908C138.242 25.796 132.526 27.8906 124.785 27.8906V28.3917V28.8928C132.702 28.8928 138.729 26.7467 142.768 22.3706L142.4 22.0307ZM124.785 28.3917V27.8906H89.3101V28.3917V28.8928H124.785V28.3917ZM89.3101 28.3917H88.809V153.654H89.3101H89.8111V28.3917H89.3101ZM89.3101 153.654H88.809C88.809 160.698 86.3365 166.088 81.4191 169.895L81.7258 170.291L82.0325 170.687C87.2274 166.665 89.8111 160.964 89.8111 153.654H89.3101ZM81.7258 170.291L81.4191 169.895C76.4839 173.715 69.3516 175.661 59.9516 175.661V176.163V176.664C69.4715 176.664 76.8553 174.695 82.0325 170.687L81.7258 170.291ZM59.9516 176.163H60.4527V28.3917H59.9516H59.4505V176.163H59.9516ZM158.96 176.163L158.896 176.66C159.117 176.688 159.331 176.567 159.42 176.362L158.96 176.163ZM144.036 169.312L143.667 169.651L143.674 169.659L144.036 169.312ZM141.834 141.911L142.286 142.128C142.289 142.122 142.292 142.116 142.294 142.109L141.834 141.911ZM198.594 10.0427L198.134 9.84245L198.134 9.84457L198.594 10.0427ZM227.463 10.0427L227.923 9.84451L227.918 9.8327L227.463 10.0427ZM284.223 141.911L284.683 141.714L284.683 141.713L284.223 141.911ZM281.776 169.312L282.138 169.659L282.145 169.651L281.776 169.312ZM266.852 176.163L266.393 176.362C266.481 176.567 266.695 176.688 266.916 176.66L266.852 176.163ZM246.057 128.21L246.516 128.011C246.437 127.828 246.256 127.709 246.057 127.709V128.21ZM179.755 128.21V127.709C179.556 127.709 179.375 127.828 179.296 128.011L179.755 128.21ZM237.004 102.766V103.268C237.171 103.268 237.326 103.185 237.419 103.048C237.512 102.91 237.531 102.735 237.47 102.581L237.004 102.766ZM208.625 31.5722L209.09 31.3867C208.99 31.1351 208.708 31.0088 208.453 31.1013L208.625 31.5722ZM205.933 32.5508L205.762 32.0799C205.634 32.1264 205.531 32.2227 205.476 32.3468C205.42 32.471 205.418 32.6123 205.469 32.7383L205.933 32.5508ZM211.56 46.4961L212.025 46.6839C212.074 46.5636 212.074 46.429 212.025 46.3086L211.56 46.4961ZM188.808 102.766L188.343 102.579C188.281 102.733 188.299 102.908 188.392 103.047C188.485 103.185 188.641 103.268 188.808 103.268V102.766ZM158.96 176.163L159.024 175.666C152.749 174.861 147.89 172.616 144.398 168.966L144.036 169.312L143.674 169.659C147.359 173.511 152.449 175.833 158.896 176.66L158.96 176.163ZM144.036 169.312L144.405 168.974C140.906 165.156 139.155 160.549 139.155 155.122H138.654H138.153C138.153 160.787 139.99 165.64 143.667 169.651L144.036 169.312ZM138.654 155.122H139.155C139.155 150.802 140.194 146.472 142.286 142.128L141.834 141.911L141.383 141.694C139.233 146.158 138.153 150.635 138.153 155.122H138.654ZM141.834 141.911L142.294 142.109L199.054 10.2408L198.594 10.0427L198.134 9.84457L141.374 141.713L141.834 141.911ZM198.594 10.0427L199.053 10.2429C200.409 7.13292 202.248 4.83142 204.558 3.30455C206.868 1.77797 209.683 1.00224 213.028 1.00224V0.501175V0.000106812C209.524 0.000106812 206.508 0.814621 204.006 2.46855C201.504 4.12219 199.552 6.59143 198.135 9.84245L198.594 10.0427ZM213.028 0.501175V1.00224C216.29 1.00224 219.065 1.7767 221.376 3.30455C223.689 4.83337 225.571 7.13853 227.008 10.2527L227.463 10.0427L227.918 9.8327C226.419 6.58582 224.427 4.12022 221.929 2.46855C219.429 0.815903 216.454 0.000106812 213.028 0.000106812V0.501175ZM227.463 10.0427L227.003 10.2408L283.762 142.109L284.223 141.911L284.683 141.713L227.923 9.84457L227.463 10.0427ZM284.223 141.911L283.762 142.108C285.698 146.626 286.657 150.881 286.657 154.878H287.159H287.66C287.66 150.719 286.661 146.33 284.683 141.714L284.223 141.911ZM287.159 154.878H286.657C286.657 160.471 284.904 165.159 281.407 168.974L281.776 169.312L282.145 169.651C285.825 165.637 287.66 160.701 287.66 154.878H287.159ZM281.776 169.312L281.414 168.966C277.922 172.616 273.063 174.861 266.789 175.666L266.852 176.163L266.916 176.66C273.363 175.833 278.453 173.511 282.138 169.659L281.776 169.312ZM266.852 176.163L267.312 175.963L246.516 128.011L246.057 128.21L245.597 128.41L266.393 176.362L266.852 176.163ZM246.057 128.21V127.709H179.755V128.21V128.712H246.057V128.21ZM179.755 128.21L179.296 128.011L158.5 175.963L158.96 176.163L159.42 176.362L180.215 128.41L179.755 128.21ZM237.004 102.766L237.47 102.581L209.09 31.3867L208.625 31.5722L208.159 31.7578L236.539 102.952L237.004 102.766ZM208.625 31.5722L208.453 31.1013L205.762 32.0799L205.933 32.5508L206.105 33.0217L208.796 32.0431L208.625 31.5722ZM205.933 32.5508L205.469 32.7383L211.096 46.6836L211.56 46.4961L212.025 46.3086L206.398 32.3633L205.933 32.5508ZM211.56 46.4961L211.096 46.3083L188.343 102.579L188.808 102.766L189.272 102.954L212.025 46.6839L211.56 46.4961ZM188.808 102.766V103.268H237.004V102.766V102.265H188.808V102.766ZM334.153 170.536L334.32 170.063V170.063L334.153 170.536ZM309.688 155.122L309.306 155.447L309.311 155.452L309.688 155.122ZM326.324 112.797L326.825 112.785C326.818 112.513 326.596 112.296 326.324 112.296V112.797ZM338.557 142.156L338.231 142.537L338.235 142.54L338.557 142.156ZM407.549 115.244L407.158 115.557L407.166 115.567L407.549 115.244ZM394.338 106.681L394.143 107.143L394.154 107.147L394.338 106.681ZM367.426 98.852L367.535 98.3629L367.533 98.3625L367.426 98.852ZM330.239 86.864L330.011 87.3105L330.014 87.3121L330.239 86.864ZM310.666 70.4722L311.088 70.2018V70.2018L310.666 70.4722ZM312.624 22.52L313.021 22.8251V22.8251L312.624 22.52ZM335.376 6.37286L335.556 6.84077L335.562 6.83809L335.376 6.37286ZM402.411 5.63892L402.246 6.11191L402.253 6.11427L402.411 5.63892ZM409.996 57.9948L409.498 58.0501C409.527 58.3098 409.75 58.5037 410.011 58.4956L409.996 57.9948ZM398.252 32.3062L397.929 32.6887L397.933 32.6927L398.252 32.3062ZM342.961 30.1043L343.228 30.5279V30.5279L342.961 30.1043ZM337.089 58.9734L336.678 59.2608C336.684 59.2686 336.69 59.2764 336.696 59.2839L337.089 58.9734ZM349.077 67.2917L348.875 67.7502L348.886 67.755L349.077 67.2917ZM373.053 74.142L373.163 73.6532L373.16 73.6525L373.053 74.142ZM412.687 86.864L412.469 87.3151L412.475 87.318L412.687 86.864ZM433.727 103.5L433.307 103.773C433.31 103.778 433.312 103.782 433.315 103.786L433.727 103.5ZM431.77 153.41L431.374 153.102L431.37 153.108L431.77 153.41ZM407.794 170.291L407.618 169.822L407.615 169.823L407.794 170.291ZM371.585 176.163V175.661C357.274 175.661 344.856 173.791 334.32 170.063L334.153 170.536L333.986 171.008C344.654 174.783 357.19 176.664 371.585 176.664V176.163ZM334.153 170.536L334.32 170.063C323.776 166.332 315.702 161.235 310.065 154.792L309.688 155.122L309.311 155.452C315.09 162.058 323.327 167.236 333.986 171.008L334.153 170.536ZM309.688 155.122L310.069 154.798C304.6 148.363 301.87 140.975 301.87 132.614H301.369H300.868C300.868 141.216 303.684 148.833 309.306 155.447L309.688 155.122ZM301.369 132.614H301.87C301.87 126.12 303.909 121.329 307.92 118.144C311.952 114.941 318.059 113.298 326.324 113.298V112.797V112.296C317.953 112.296 311.582 113.956 307.296 117.359C302.989 120.78 300.868 125.897 300.868 132.614H301.369ZM326.324 112.797L325.823 112.81C326.152 125.799 330.268 135.735 338.231 142.537L338.557 142.156L338.882 141.775C331.188 135.202 327.149 125.566 326.825 112.785L326.324 112.797ZM338.557 142.156L338.235 142.54C346.346 149.327 357.648 152.688 372.074 152.688V152.187V151.685C357.795 151.685 346.751 148.359 338.878 141.771L338.557 142.156ZM372.074 152.187V152.688C384.679 152.688 394.49 150.561 401.452 146.252L401.188 145.826L400.924 145.399C394.186 149.571 384.588 151.685 372.074 151.685V152.187ZM401.188 145.826L401.452 146.252C408.448 141.92 411.965 135.644 411.965 127.476H411.464H410.963C410.963 135.293 407.629 141.249 400.924 145.399L401.188 145.826ZM411.464 127.476H411.965C411.965 122.332 410.636 118.131 407.932 114.921L407.549 115.244L407.166 115.567C409.682 118.554 410.963 122.508 410.963 127.476H411.464ZM407.549 115.244L407.94 114.931C405.253 111.571 400.757 108.676 394.522 106.215L394.338 106.681L394.154 107.147C400.314 109.579 404.626 112.392 407.158 115.557L407.549 115.244ZM394.338 106.681L394.532 106.219C388.293 103.592 379.288 100.975 367.535 98.3629L367.426 98.852L367.317 99.3411C379.05 101.948 387.987 104.55 394.143 107.143L394.338 106.681ZM367.426 98.852L367.533 98.3625C351.896 94.9418 339.544 90.9567 330.463 86.4158L330.239 86.864L330.014 87.3121C339.2 91.905 351.641 95.9119 367.319 99.3415L367.426 98.852ZM330.239 86.864L330.466 86.4174C321.549 81.8779 315.104 76.4669 311.088 70.2018L310.666 70.4722L310.244 70.7426C314.383 77.1994 320.987 82.7162 330.011 87.3105L330.239 86.864ZM310.666 70.4722L311.088 70.2018C307.074 63.9396 305.051 56.1289 305.051 46.7407H304.55H304.049C304.049 56.2725 306.104 64.2827 310.244 70.7426L310.666 70.4722ZM304.55 46.7407H305.051C305.051 37.7134 307.708 29.7479 313.021 22.8251L312.624 22.52L312.226 22.215C306.774 29.319 304.049 37.5006 304.049 46.7407H304.55ZM312.624 22.52L313.021 22.8251C318.337 15.8977 325.84 10.5652 335.556 6.84073L335.376 6.37286L335.197 5.90498C325.341 9.68324 317.674 15.1156 312.226 22.215L312.624 22.52ZM335.376 6.37286L335.562 6.83809C345.278 2.95193 356.548 1.00224 369.383 1.00224V0.501175V0.000106812C356.448 0.000106812 345.047 1.96487 335.19 5.90762L335.376 6.37286ZM369.383 0.501175V1.00224C381.569 1.00224 392.522 2.70831 402.246 6.11185L402.411 5.63892L402.577 5.16597C392.729 1.71918 381.662 0.000106812 369.383 0.000106812V0.501175ZM402.411 5.63892L402.253 6.11427C411.979 9.35628 419.565 13.9651 425.04 19.9232L425.409 19.5842L425.778 19.2451C420.162 13.1336 412.416 8.44563 402.57 5.16356L402.411 5.63892ZM425.409 19.5842L425.04 19.9232C430.505 25.8703 433.226 32.6827 433.226 40.3797H433.727H434.228C434.228 32.4189 431.404 25.3676 425.778 19.2451L425.409 19.5842ZM433.727 40.3797H433.226C433.226 45.874 431.304 49.9948 427.496 52.8217C423.659 55.6698 417.845 57.2507 409.98 57.494L409.996 57.9948L410.011 58.4956C417.967 58.2496 424.019 56.6501 428.093 53.6264C432.195 50.5816 434.228 46.1396 434.228 40.3797H433.727ZM409.996 57.9948L410.494 57.9395C409.18 46.1186 405.23 37.4131 398.571 31.9196L398.252 32.3062L397.933 32.6927C404.323 37.964 408.201 46.3843 409.498 58.0501L409.996 57.9948ZM398.252 32.3062L398.576 31.9236C392.086 26.4326 382.325 23.7315 369.383 23.7315V24.2326V24.7337C382.211 24.7337 391.696 27.415 397.929 32.6887L398.252 32.3062ZM369.383 24.2326V23.7315C357.92 23.7315 349.004 25.6948 342.693 29.6806L342.961 30.1043L343.228 30.5279C349.313 26.6849 358.012 24.7337 369.383 24.7337V24.2326ZM342.961 30.1043L342.693 29.6806C336.354 33.6845 333.163 39.3879 333.163 46.7407H333.664H334.165C334.165 39.7406 337.172 34.353 343.228 30.5279L342.961 30.1043ZM333.664 46.7407H333.163C333.163 51.7128 334.324 55.8969 336.678 59.2608L337.089 58.9734L337.499 58.6861C335.287 55.5259 334.165 51.5548 334.165 46.7407H333.664ZM337.089 58.9734L336.696 59.2839C339.213 62.4723 343.291 65.2867 348.875 67.7501L349.077 67.2917L349.279 66.8332C343.772 64.4036 339.858 61.6724 337.482 58.6629L337.089 58.9734ZM349.077 67.2917L348.886 67.755C354.472 70.055 362.497 72.3458 372.946 74.6315L373.053 74.142L373.16 73.6525C362.732 71.3712 354.773 69.0952 349.268 66.8283L349.077 67.2917ZM373.053 74.142L372.943 74.6308C389.56 78.3779 402.731 82.6084 412.469 87.3151L412.687 86.864L412.905 86.4128C403.071 81.6596 389.818 77.4088 373.163 73.6532L373.053 74.142ZM412.687 86.864L412.475 87.318C422.208 91.86 429.134 97.3529 433.307 103.773L433.727 103.5L434.147 103.227C429.839 96.5997 422.738 91.0016 412.899 86.4099L412.687 86.864ZM433.727 103.5L433.315 103.786C437.648 110.044 439.832 117.93 439.832 127.476H440.333H440.834C440.834 117.777 438.614 109.678 434.139 103.215L433.727 103.5ZM440.333 127.476H439.832C439.832 137.323 437.01 145.857 431.374 153.102L431.77 153.41L432.165 153.717C437.947 146.283 440.834 137.529 440.834 127.476H440.333ZM431.77 153.41L431.37 153.108C425.893 160.357 417.986 165.934 407.618 169.822L407.794 170.291L407.97 170.76C418.478 166.819 426.556 161.142 432.17 153.712L431.77 153.41ZM407.794 170.291L407.615 169.823C397.41 173.711 385.403 175.661 371.585 175.661V176.163V176.664C385.494 176.664 397.627 174.7 407.972 170.759L407.794 170.291ZM474.095 176.163L474.031 176.66C474.253 176.688 474.466 176.567 474.555 176.362L474.095 176.163ZM459.171 169.312L458.802 169.651L458.809 169.659L459.171 169.312ZM456.969 141.911L457.421 142.128C457.424 142.122 457.427 142.116 457.429 142.109L456.969 141.911ZM513.729 10.0427L513.27 9.84245L513.269 9.84457L513.729 10.0427ZM542.598 10.0427L543.058 9.84451L543.053 9.8327L542.598 10.0427ZM599.358 141.911L599.818 141.714L599.818 141.713L599.358 141.911ZM596.911 169.312L597.273 169.659L597.281 169.651L596.911 169.312ZM581.987 176.163L581.528 176.362C581.616 176.567 581.83 176.688 582.051 176.66L581.987 176.163ZM561.192 128.21L561.651 128.011C561.572 127.828 561.391 127.709 561.192 127.709V128.21ZM494.891 128.21V127.709C494.691 127.709 494.51 127.828 494.431 128.011L494.891 128.21ZM552.14 102.766V103.268C552.306 103.268 552.461 103.185 552.554 103.048C552.648 102.91 552.667 102.735 552.605 102.581L552.14 102.766ZM523.76 31.5722L524.225 31.3867C524.125 31.1351 523.843 31.0088 523.588 31.1013L523.76 31.5722ZM521.068 32.5508L520.897 32.0799C520.77 32.1264 520.666 32.2227 520.611 32.3468C520.555 32.471 520.553 32.6123 520.604 32.7383L521.068 32.5508ZM526.696 46.4961L527.16 46.6839C527.209 46.5636 527.209 46.429 527.16 46.3086L526.696 46.4961ZM503.943 102.766L503.478 102.579C503.416 102.733 503.434 102.908 503.527 103.047C503.62 103.185 503.776 103.268 503.943 103.268V102.766ZM474.095 176.163L474.159 175.666C467.884 174.861 463.025 172.616 459.533 168.966L459.171 169.312L458.809 169.659C462.494 173.511 467.584 175.833 474.031 176.66L474.095 176.163ZM459.171 169.312L459.54 168.974C456.041 165.156 454.29 160.549 454.29 155.122H453.789H453.288C453.288 160.787 455.125 165.64 458.802 169.651L459.171 169.312ZM453.789 155.122H454.29C454.29 150.802 455.329 146.472 457.421 142.128L456.969 141.911L456.518 141.694C454.368 146.158 453.288 150.635 453.288 155.122H453.789ZM456.969 141.911L457.429 142.109L514.189 10.2408L513.729 10.0427L513.269 9.84457L456.509 141.713L456.969 141.911ZM513.729 10.0427L514.188 10.2429C515.544 7.13292 517.384 4.83142 519.693 3.30455C522.003 1.77797 524.818 1.00224 528.163 1.00224V0.501175V0.000106812C524.659 0.000106812 521.643 0.814621 519.141 2.46855C516.639 4.12219 514.687 6.59143 513.27 9.84245L513.729 10.0427ZM528.163 0.501175V1.00224C531.425 1.00224 534.2 1.7767 536.511 3.30455C538.824 4.83337 540.706 7.13853 542.143 10.2527L542.598 10.0427L543.053 9.8327C541.554 6.58582 539.562 4.12022 537.064 2.46855C534.564 0.815903 531.589 0.000106812 528.163 0.000106812V0.501175ZM542.598 10.0427L542.138 10.2408L598.897 142.109L599.358 141.911L599.818 141.713L543.058 9.84457L542.598 10.0427ZM599.358 141.911L598.897 142.108C600.833 146.626 601.792 150.881 601.792 154.878H602.294H602.795C602.795 150.719 601.797 146.33 599.818 141.714L599.358 141.911ZM602.294 154.878H601.792C601.792 160.471 600.039 165.159 596.542 168.974L596.911 169.312L597.281 169.651C600.96 165.637 602.795 160.701 602.795 154.878H602.294ZM596.911 169.312L596.549 168.966C593.057 172.616 588.198 174.861 581.924 175.666L581.987 176.163L582.051 176.66C588.498 175.833 593.588 173.511 597.273 169.659L596.911 169.312ZM581.987 176.163L582.447 175.963L561.651 128.011L561.192 128.21L560.732 128.41L581.528 176.362L581.987 176.163ZM561.192 128.21V127.709H494.891V128.21V128.712H561.192V128.21ZM494.891 128.21L494.431 128.011L473.635 175.963L474.095 176.163L474.555 176.362L495.35 128.41L494.891 128.21ZM552.14 102.766L552.605 102.581L524.225 31.3867L523.76 31.5722L523.294 31.7578L551.674 102.952L552.14 102.766ZM523.76 31.5722L523.588 31.1013L520.897 32.0799L521.068 32.5508L521.24 33.0217L523.931 32.0431L523.76 31.5722ZM521.068 32.5508L520.604 32.7383L526.231 46.6836L526.696 46.4961L527.16 46.3086L521.533 32.3633L521.068 32.5508ZM526.696 46.4961L526.231 46.3083L503.478 102.579L503.943 102.766L504.407 102.954L527.16 46.6839L526.696 46.4961ZM503.943 102.766V103.268H552.14V102.766V102.265H503.943V102.766ZM635.438 6.37286L635.138 5.97195L635.132 5.97665L635.438 6.37286ZM657.213 0.501175H657.714C657.714 0.224442 657.489 0.000106812 657.213 0.000106812V0.501175ZM657.213 80.7476H656.711C656.711 80.948 656.831 81.1291 657.015 81.2081C657.199 81.2871 657.413 81.2488 657.558 81.1107L657.213 80.7476ZM741.618 0.501175L741.916 0.0982208C741.72 -0.0463562 741.449 -0.0295715 741.273 0.138031L741.618 0.501175ZM750.67 9.55336L750.26 9.84071V9.84071L750.67 9.55336ZM751.649 25.2112L751.232 24.9333V24.9333L751.649 25.2112ZM744.799 33.0401L745.142 33.4055L745.143 33.4044L744.799 33.0401ZM692.932 81.7262L692.589 81.3609C692.397 81.5409 692.377 81.8385 692.543 82.0425L692.932 81.7262ZM762.414 167.11L762.808 167.419C762.952 167.235 762.95 166.976 762.802 166.794L762.414 167.11ZM727.184 167.844L726.794 168.159L726.797 168.163L727.184 167.844ZM672.626 100.32L673.016 100.005C672.928 99.8967 672.799 99.8297 672.66 99.82C672.522 99.8104 672.385 99.859 672.283 99.9542L672.626 100.32ZM657.213 114.754L656.87 114.389C656.769 114.483 656.711 114.616 656.711 114.754H657.213ZM650.118 171.025L650.412 171.431L650.42 171.424L650.118 171.025ZM627.854 176.163H627.353C627.353 176.439 627.577 176.664 627.854 176.664V176.163ZM627.854 23.254H628.355C628.355 16.0434 630.831 10.5738 635.745 6.76907L635.438 6.37286L635.132 5.97665C629.934 10.0009 627.353 15.7853 627.353 23.254H627.854ZM635.438 6.37286L635.739 6.77371C640.842 2.94679 647.979 1.00224 657.213 1.00224V0.501175V0.000106812C647.852 0.000106812 640.474 1.97002 635.138 5.972L635.438 6.37286ZM657.213 0.501175H656.711V80.7476H657.213H657.714V0.501175H657.213ZM657.213 80.7476L657.558 81.1107L741.963 0.864319L741.618 0.501175L741.273 0.138031L656.867 80.3845L657.213 80.7476ZM741.618 0.501175L741.32 0.904129C745.035 3.65007 748.012 6.6299 750.26 9.84071L750.67 9.55336L751.081 9.26602C748.761 5.95273 745.704 2.89777 741.916 0.0982208L741.618 0.501175ZM750.67 9.55336L750.26 9.84071C752.518 13.0668 753.594 15.8188 753.594 18.1163H754.095H754.597C754.597 15.5206 753.389 12.5641 751.081 9.26602L750.67 9.55336ZM754.095 18.1163H753.594C753.594 20.2759 752.824 22.5455 751.232 24.9333L751.649 25.2112L752.066 25.4892C753.736 22.9838 754.597 20.5235 754.597 18.1163H754.095ZM751.649 25.2112L751.232 24.9333C749.628 27.3392 747.372 29.9202 744.455 32.6758L744.799 33.0401L745.143 33.4044C748.097 30.6146 750.408 27.9763 752.066 25.4892L751.649 25.2112ZM744.799 33.0401L744.456 32.6748L692.589 81.3609L692.932 81.7262L693.275 82.0916L745.142 33.4055L744.799 33.0401ZM692.932 81.7262L692.543 82.0425L762.025 167.427L762.414 167.11L762.802 166.794L693.321 81.41L692.932 81.7262ZM762.414 167.11L762.019 166.801C757.371 172.731 751.72 175.661 745.043 175.661V176.163V176.664C752.067 176.664 757.996 173.559 762.808 167.419L762.414 167.11ZM745.043 176.163V175.661C737.85 175.661 732.04 172.953 727.57 167.526L727.184 167.844L726.797 168.163C731.461 173.827 737.558 176.664 745.043 176.664V176.163ZM727.184 167.844L727.573 167.529L673.016 100.005L672.626 100.32L672.236 100.635L726.794 168.159L727.184 167.844ZM672.626 100.32L672.283 99.9542L656.87 114.389L657.213 114.754L657.555 115.12L672.968 100.686L672.626 100.32ZM657.213 114.754H656.711V154.633H657.213H657.714V114.754H657.213ZM657.213 154.633H656.711C656.711 161.857 654.39 167.154 649.815 170.626L650.118 171.025L650.42 171.424C655.305 167.719 657.714 162.088 657.714 154.633H657.213ZM650.118 171.025L649.824 170.619C645.222 173.951 637.93 175.661 627.854 175.661V176.163V176.664C638.003 176.664 645.553 174.949 650.411 171.431L650.118 171.025ZM627.854 176.163H628.355V23.254H627.854H627.353V176.163H627.854ZM800.169 6.37286L799.868 5.97195L799.862 5.97665L800.169 6.37286ZM821.943 0.501175H822.444C822.444 0.224442 822.22 0.000106812 821.943 0.000106812V0.501175ZM814.359 170.291L814.665 170.687L814.673 170.681L814.359 170.291ZM792.584 176.163H792.083C792.083 176.439 792.308 176.664 792.584 176.664V176.163ZM792.584 23.0093H793.086C793.086 15.9662 795.558 10.5761 800.475 6.76907L800.169 6.37286L799.862 5.97665C794.667 9.99852 792.083 15.6994 792.083 23.0093H792.584ZM800.169 6.37286L800.469 6.77371C805.572 2.94679 812.71 1.00224 821.943 1.00224V0.501175V0.000106812C812.582 0.000106812 805.204 1.97002 799.868 5.972L800.169 6.37286ZM821.943 0.501175H821.442V153.41H821.943H822.444V0.501175H821.943ZM821.943 153.41H821.442C821.442 160.453 818.969 165.929 814.044 169.901L814.359 170.291L814.673 170.681C819.861 166.497 822.444 160.72 822.444 153.41H821.943ZM814.359 170.291L814.052 169.895C809.117 173.715 801.984 175.661 792.584 175.661V176.163V176.664C802.104 176.664 809.488 174.695 814.665 170.687L814.359 170.291ZM792.584 176.163H793.086V23.0093H792.584H792.083V176.163H792.584ZM885.341 170.536L885.508 170.063V170.063L885.341 170.536ZM860.875 155.122L860.494 155.447L860.498 155.452L860.875 155.122ZM877.512 112.797L878.013 112.785C878.006 112.513 877.784 112.296 877.512 112.296V112.797ZM889.745 142.156L889.419 142.537L889.423 142.54L889.745 142.156ZM958.737 115.244L958.345 115.557L958.354 115.567L958.737 115.244ZM945.526 106.681L945.331 107.143L945.342 107.147L945.526 106.681ZM918.614 98.852L918.722 98.3629L918.721 98.3625L918.614 98.852ZM881.426 86.864L881.199 87.3105L881.202 87.3121L881.426 86.864ZM861.854 70.4722L862.276 70.2018V70.2018L861.854 70.4722ZM863.811 22.52L864.209 22.8251V22.8251L863.811 22.52ZM886.564 6.37286L886.743 6.84077L886.75 6.83809L886.564 6.37286ZM953.599 5.63892L953.434 6.11191L953.441 6.11427L953.599 5.63892ZM961.183 57.9948L960.685 58.0501C960.714 58.3098 960.938 58.5037 961.199 58.4956L961.183 57.9948ZM949.44 32.3062L949.116 32.6887L949.121 32.6927L949.44 32.3062ZM894.148 30.1043L894.416 30.5279V30.5279L894.148 30.1043ZM888.277 58.9734L887.866 59.2608C887.872 59.2686 887.877 59.2764 887.883 59.2839L888.277 58.9734ZM900.265 67.2917L900.062 67.7502L900.074 67.755L900.265 67.2917ZM924.241 74.142L924.351 73.6532L924.348 73.6525L924.241 74.142ZM963.875 86.864L963.656 87.3151L963.663 87.318L963.875 86.864ZM984.915 103.5L984.495 103.773C984.497 103.778 984.5 103.782 984.503 103.786L984.915 103.5ZM982.958 153.41L982.562 153.102L982.558 153.108L982.958 153.41ZM958.982 170.291L958.806 169.822L958.803 169.823L958.982 170.291ZM922.773 176.163V175.661C908.462 175.661 896.043 173.791 885.508 170.063L885.341 170.536L885.174 171.008C895.841 174.783 908.378 176.664 922.773 176.664V176.163ZM885.341 170.536L885.508 170.063C874.964 166.332 866.89 161.235 861.252 154.792L860.875 155.122L860.498 155.452C866.278 162.058 874.514 167.236 885.174 171.008L885.341 170.536ZM860.875 155.122L861.257 154.798C855.788 148.363 853.058 140.975 853.058 132.614H852.557H852.056C852.056 141.216 854.872 148.833 860.494 155.447L860.875 155.122ZM852.557 132.614H853.058C853.058 126.12 855.097 121.329 859.107 118.144C863.14 114.941 869.246 113.298 877.512 113.298V112.797V112.296C869.141 112.296 862.77 113.956 858.484 117.359C854.177 120.78 852.056 125.897 852.056 132.614H852.557ZM877.512 112.797L877.011 112.81C877.34 125.799 881.456 135.735 889.419 142.537L889.745 142.156L890.07 141.775C882.375 135.202 878.336 125.566 878.013 112.785L877.512 112.797ZM889.745 142.156L889.423 142.54C897.534 149.327 908.836 152.688 923.262 152.688V152.187V151.685C908.982 151.685 897.939 148.359 890.066 141.771L889.745 142.156ZM923.262 152.187V152.688C935.866 152.688 945.677 150.561 952.64 146.252L952.376 145.826L952.112 145.399C945.374 149.571 935.776 151.685 923.262 151.685V152.187ZM952.376 145.826L952.64 146.252C959.636 141.92 963.152 135.644 963.152 127.476H962.651H962.15C962.15 135.293 958.816 141.249 952.112 145.399L952.376 145.826ZM962.651 127.476H963.152C963.152 122.332 961.823 118.131 959.12 114.921L958.737 115.244L958.354 115.567C960.87 118.554 962.15 122.508 962.15 127.476H962.651ZM958.737 115.244L959.128 114.931C956.441 111.571 951.945 108.676 945.71 106.215L945.526 106.681L945.342 107.147C951.502 109.579 955.814 112.392 958.346 115.557L958.737 115.244ZM945.526 106.681L945.72 106.219C939.481 103.592 930.476 100.975 918.722 98.3629L918.614 98.852L918.505 99.3411C930.238 101.948 939.174 104.55 945.331 107.143L945.526 106.681ZM918.614 98.852L918.721 98.3625C903.083 94.9418 890.732 90.9567 881.65 86.4158L881.426 86.864L881.202 87.3121C890.388 91.905 902.828 95.9119 918.507 99.3415L918.614 98.852ZM881.426 86.864L881.654 86.4174C872.737 81.8779 866.292 76.4669 862.276 70.2018L861.854 70.4722L861.432 70.7426C865.571 77.1994 872.174 82.7162 881.199 87.3105L881.426 86.864ZM861.854 70.4722L862.276 70.2018C858.262 63.9396 856.239 56.1289 856.239 46.7407H855.738H855.237C855.237 56.2725 857.291 64.2827 861.432 70.7426L861.854 70.4722ZM855.738 46.7407H856.239C856.239 37.7134 858.896 29.7479 864.209 22.8251L863.811 22.52L863.414 22.215C857.962 29.319 855.237 37.5006 855.237 46.7407H855.738ZM863.811 22.52L864.209 22.8251C869.525 15.8977 877.027 10.5652 886.743 6.84073L886.564 6.37286L886.385 5.90498C876.528 9.68324 868.862 15.1156 863.414 22.215L863.811 22.52ZM886.564 6.37286L886.75 6.83809C896.466 2.95193 907.736 1.00224 920.571 1.00224V0.501175V0.000106812C907.636 0.000106812 896.235 1.96487 886.378 5.90762L886.564 6.37286ZM920.571 0.501175V1.00224C932.757 1.00224 943.709 2.70831 953.434 6.11185L953.599 5.63892L953.765 5.16597C943.917 1.71918 932.85 0.000106812 920.571 0.000106812V0.501175ZM953.599 5.63892L953.441 6.11427C963.167 9.35628 970.753 13.9651 976.228 19.9232L976.597 19.5842L976.966 19.2451C971.35 13.1336 963.604 8.44563 953.758 5.16356L953.599 5.63892ZM976.597 19.5842L976.228 19.9232C981.693 25.8703 984.414 32.6827 984.414 40.3797H984.915H985.416C985.416 32.4189 982.592 25.3676 976.966 19.2451L976.597 19.5842ZM984.915 40.3797H984.414C984.414 45.874 982.492 49.9948 978.683 52.8217C974.846 55.6698 969.033 57.2507 961.168 57.494L961.183 57.9948L961.199 58.4956C969.155 58.2496 975.207 56.6501 979.281 53.6264C983.383 50.5816 985.416 46.1396 985.416 40.3797H984.915ZM961.183 57.9948L961.681 57.9395C960.368 46.1186 956.418 37.4131 949.759 31.9196L949.44 32.3062L949.121 32.6927C955.511 37.964 959.389 46.3843 960.685 58.0501L961.183 57.9948ZM949.44 32.3062L949.764 31.9236C943.274 26.4326 933.513 23.7315 920.571 23.7315V24.2326V24.7337C933.399 24.7337 942.884 27.415 949.116 32.6887L949.44 32.3062ZM920.571 24.2326V23.7315C909.108 23.7315 900.192 25.6948 893.881 29.6806L894.148 30.1043L894.416 30.5279C900.501 26.6849 909.2 24.7337 920.571 24.7337V24.2326ZM894.148 30.1043L893.881 29.6806C887.541 33.6845 884.35 39.3879 884.35 46.7407H884.851H885.352C885.352 39.7406 888.359 34.353 894.416 30.5279L894.148 30.1043ZM884.851 46.7407H884.35C884.35 51.7128 885.511 55.8969 887.866 59.2608L888.277 58.9734L888.687 58.6861C886.475 55.5259 885.352 51.5548 885.352 46.7407H884.851ZM888.277 58.9734L887.883 59.2839C890.4 62.4723 894.479 65.2867 900.062 67.7501L900.265 67.2917L900.467 66.8332C894.96 64.4036 891.046 61.6724 888.67 58.6629L888.277 58.9734ZM900.265 67.2917L900.074 67.755C905.66 70.055 913.685 72.3458 924.134 74.6315L924.241 74.142L924.348 73.6525C913.919 71.3712 905.961 69.0952 900.455 66.8283L900.265 67.2917ZM924.241 74.142L924.13 74.6308C940.748 78.3779 953.918 82.6084 963.657 87.3151L963.875 86.864L964.093 86.4128C954.258 81.6596 941.006 77.4088 924.351 73.6532L924.241 74.142ZM963.875 86.864L963.663 87.318C973.396 91.86 980.321 97.3529 984.495 103.773L984.915 103.5L985.335 103.227C981.027 96.5997 973.926 91.0016 964.086 86.4099L963.875 86.864ZM984.915 103.5L984.503 103.786C988.836 110.044 991.019 117.93 991.019 127.476H991.52H992.022C992.022 117.777 989.801 109.678 985.327 103.215L984.915 103.5ZM991.52 127.476H991.019C991.019 137.323 988.197 145.857 982.562 153.102L982.958 153.41L983.353 153.717C989.135 146.283 992.022 137.529 992.022 127.476H991.52ZM982.958 153.41L982.558 153.108C977.081 160.357 969.174 165.934 958.806 169.822L958.982 170.291L959.157 170.76C969.666 166.819 977.744 161.142 983.357 153.712L982.958 153.41ZM958.982 170.291L958.803 169.823C948.597 173.711 936.591 175.661 922.773 175.661V176.163V176.664C936.682 176.664 948.815 174.7 959.16 170.759L958.982 170.291Z" fill="#163255"/>
</svg>
