<svg width="32" height="55" viewBox="0 0 32 55" fill="none" xmlns="http://www.w3.org/2000/svg">
<path d="M12.7914 29.1006C19.8149 43.2775 27.7969 53.6365 30.6199 52.238C33.4429 50.8395 30.0369 38.2132 23.0139 24.0363C15.9909 9.85941 8.00855 -0.499541 5.18575 0.898939C2.36285 2.29742 5.76804 14.9238 12.7914 29.1006Z" fill="#D6E4F5" fill-opacity="0.6"/>
<path d="M8.59804 31.69C15.6219 45.8669 23.6029 56.2259 26.4259 54.8274C29.2489 53.4289 25.8439 40.8026 18.8209 26.6257C11.7971 12.4488 3.81523 2.08981 0.992332 3.48829C-1.83047 4.88677 1.57474 17.5131 8.59804 31.69Z" fill="#D6E4F5" fill-opacity="0.6"/>
<path d="M18.971 28.3282C11.9476 42.5051 3.96568 52.864 1.14278 51.4656C-1.68012 50.0671 1.72508 37.4407 8.74848 23.2638C15.772 9.08701 23.754 -1.272 26.577 0.126478C29.4 1.52496 25.994 14.1513 18.971 28.3282Z" fill="#D6E4F5" fill-opacity="0.6"/>
<path d="M23.1635 30.9146C16.1395 45.0915 8.15796 55.4505 5.33516 54.052C2.51226 52.6535 5.91746 40.0272 12.9409 25.8503C19.9645 11.6734 27.9465 1.31442 30.7695 2.7129C33.5915 4.11138 30.1865 16.7377 23.1635 30.9146Z" fill="#D6E4F5" fill-opacity="0.6"/>
<path d="M15.5699 27.9513C16.0569 27.9513 16.4519 27.5741 16.4519 27.1087C16.4519 26.6434 16.0569 26.2662 15.5699 26.2662C15.0829 26.2662 14.6875 26.6434 14.6875 27.1087C14.6875 27.5741 15.0829 27.9513 15.5699 27.9513Z" fill="#74859A"/>
<path d="M1.84694 6.48063C2.33404 6.48063 2.72904 6.10341 2.72904 5.63808C2.72904 5.17275 2.33404 4.79553 1.84694 4.79553C1.35974 4.79553 0.964844 5.17275 0.964844 5.63808C0.964844 6.10341 1.35974 6.48063 1.84694 6.48063Z" fill="#1C385A"/>
<path d="M6.20232 3.78288C6.68952 3.78288 7.08441 3.40566 7.08441 2.94033C7.08441 2.475 6.68952 2.09778 6.20232 2.09778C5.71522 2.09778 5.32031 2.475 5.32031 2.94033C5.32031 3.40566 5.71522 3.78288 6.20232 3.78288Z" fill="#1C385A"/>
<path d="M25.3468 3.27653C25.8338 3.27653 26.2288 2.89931 26.2288 2.43398C26.2288 1.96865 25.8338 1.59143 25.3468 1.59143C24.8598 1.59143 24.4648 1.96865 24.4648 2.43398C24.4648 2.89931 24.8598 3.27653 25.3468 3.27653Z" fill="#1C385A"/>
<path d="M29.6974 5.70231C30.1844 5.70231 30.5794 5.32509 30.5794 4.85976C30.5794 4.39443 30.1844 4.01721 29.6974 4.01721C29.2104 4.01721 28.8154 4.39443 28.8154 4.85976C28.8154 5.32509 29.2104 5.70231 29.6974 5.70231Z" fill="#1C385A"/>
<path d="M2.1321 49.9914C2.6193 49.9914 3.0142 49.6142 3.0142 49.1489C3.0142 48.6835 2.6193 48.3063 2.1321 48.3063C1.645 48.3063 1.25 48.6835 1.25 49.1489C1.25 49.6142 1.645 49.9914 2.1321 49.9914Z" fill="#1C385A"/>
<path d="M6.40358 52.8844C6.89078 52.8844 7.28568 52.5072 7.28568 52.0418C7.28568 51.5765 6.89078 51.1993 6.40358 51.1993C5.91638 51.1993 5.52148 51.5765 5.52148 52.0418C5.52148 52.5072 5.91638 52.8844 6.40358 52.8844Z" fill="#1C385A"/>
<path d="M25.34 53.6086C25.827 53.6086 26.222 53.2314 26.222 52.7661C26.222 52.3007 25.827 51.9235 25.34 51.9235C24.853 51.9235 24.458 52.3007 24.458 52.7661C24.458 53.2314 24.853 53.6086 25.34 53.6086Z" fill="#1C385A"/>
<path d="M29.674 50.6838C30.161 50.6838 30.556 50.3066 30.556 49.8412C30.556 49.3759 30.161 48.9987 29.674 48.9987C29.187 48.9987 28.792 49.3759 28.792 49.8412C28.792 50.3066 29.187 50.6838 29.674 50.6838Z" fill="#1C385A"/>
</svg>
